<mxfile host="Electron" modified="2023-11-26T22:26:05.394Z" agent="Mozilla/5.0 (Windows NT 10.0; Win64; x64) AppleWebKit/537.36 (KHTML, like Gecko) draw.io/22.1.2 Chrome/114.0.5735.289 Electron/25.9.4 Safari/537.36" etag="ADRokHSHnV2JSmH-byee" version="22.1.2" type="device">
  <diagram id="43koFgIn_t4UnpplzxkW" name="Página-1">
    <mxGraphModel dx="683" dy="407" grid="1" gridSize="10" guides="1" tooltips="1" connect="1" arrows="1" fold="1" page="1" pageScale="1" pageWidth="1169" pageHeight="827" math="0" shadow="0">
      <root>
        <mxCell id="0" />
        <mxCell id="1" parent="0" />
        <mxCell id="W9jZJQIDUN-E1ysLY_Tf-121" value="1" style="edgeStyle=orthogonalEdgeStyle;rounded=0;orthogonalLoop=1;jettySize=auto;html=1;exitX=1;exitY=0.25;exitDx=0;exitDy=0;endArrow=none;endFill=0;" parent="1" source="EP_qLhoWPCY1FDuJNaD8-1" target="W9jZJQIDUN-E1ysLY_Tf-119" edge="1">
          <mxGeometry x="0.1864" y="10" relative="1" as="geometry">
            <mxPoint as="offset" />
          </mxGeometry>
        </mxCell>
        <mxCell id="EP_qLhoWPCY1FDuJNaD8-1" value="Deus" style="swimlane;fontStyle=1;childLayout=stackLayout;horizontal=1;startSize=30;horizontalStack=0;resizeParent=1;resizeParentMax=0;resizeLast=0;collapsible=1;marginBottom=0;whiteSpace=wrap;html=1;rounded=0;shadow=0;glass=0;strokeColor=default;align=center;verticalAlign=middle;fontFamily=Helvetica;fontSize=13;fontColor=default;fillColor=#888daa;labelBackgroundColor=none;labelBorderColor=none;swimlaneFillColor=none;fillStyle=auto;" parent="1" vertex="1">
          <mxGeometry x="20" y="476" width="100" height="90" as="geometry">
            <mxRectangle x="10" y="120" width="80" height="30" as="alternateBounds" />
          </mxGeometry>
        </mxCell>
        <mxCell id="W9jZJQIDUN-E1ysLY_Tf-224" value="&lt;u&gt;id DEUS&lt;/u&gt;" style="text;strokeColor=none;fillColor=none;align=left;verticalAlign=middle;spacingLeft=4;spacingRight=4;overflow=hidden;points=[[0,0.5],[1,0.5]];portConstraint=eastwest;rotatable=0;whiteSpace=wrap;html=1;fontSize=12;fontFamily=Helvetica;fontColor=default;labelBackgroundColor=none;labelBorderColor=none;swimlaneFillColor=none;" parent="EP_qLhoWPCY1FDuJNaD8-1" vertex="1">
          <mxGeometry y="30" width="100" height="30" as="geometry" />
        </mxCell>
        <mxCell id="EP_qLhoWPCY1FDuJNaD8-2" value="Nome" style="text;strokeColor=none;fillColor=none;align=left;verticalAlign=middle;spacingLeft=4;spacingRight=4;overflow=hidden;points=[[0,0.5],[1,0.5]];portConstraint=eastwest;rotatable=0;whiteSpace=wrap;html=1;fontSize=12;fontFamily=Helvetica;fontColor=default;labelBackgroundColor=none;labelBorderColor=none;swimlaneFillColor=none;" parent="EP_qLhoWPCY1FDuJNaD8-1" vertex="1">
          <mxGeometry y="60" width="100" height="30" as="geometry" />
        </mxCell>
        <mxCell id="W9jZJQIDUN-E1ysLY_Tf-146" value="1" style="edgeStyle=orthogonalEdgeStyle;rounded=0;orthogonalLoop=1;jettySize=auto;html=1;endArrow=none;endFill=0;" parent="1" source="EP_qLhoWPCY1FDuJNaD8-5" target="W9jZJQIDUN-E1ysLY_Tf-105" edge="1">
          <mxGeometry x="-0.7538" y="-10" relative="1" as="geometry">
            <Array as="points">
              <mxPoint x="260" y="274" />
              <mxPoint x="260" y="390" />
            </Array>
            <mxPoint as="offset" />
          </mxGeometry>
        </mxCell>
        <mxCell id="W9jZJQIDUN-E1ysLY_Tf-152" value="1" style="edgeStyle=orthogonalEdgeStyle;rounded=0;orthogonalLoop=1;jettySize=auto;html=1;endArrow=none;endFill=0;" parent="1" source="EP_qLhoWPCY1FDuJNaD8-5" target="W9jZJQIDUN-E1ysLY_Tf-150" edge="1">
          <mxGeometry x="-0.9657" y="-10" relative="1" as="geometry">
            <Array as="points">
              <mxPoint x="320" y="108" />
            </Array>
            <mxPoint as="offset" />
          </mxGeometry>
        </mxCell>
        <mxCell id="W9jZJQIDUN-E1ysLY_Tf-203" value="1" style="edgeStyle=orthogonalEdgeStyle;rounded=0;orthogonalLoop=1;jettySize=auto;html=1;jumpStyle=sharp;endArrow=none;endFill=0;" parent="1" source="EP_qLhoWPCY1FDuJNaD8-5" target="W9jZJQIDUN-E1ysLY_Tf-199" edge="1">
          <mxGeometry x="-0.977" y="-10" relative="1" as="geometry">
            <Array as="points">
              <mxPoint x="1210" y="270" />
            </Array>
            <mxPoint as="offset" />
          </mxGeometry>
        </mxCell>
        <mxCell id="W9jZJQIDUN-E1ysLY_Tf-279" style="edgeStyle=orthogonalEdgeStyle;rounded=0;orthogonalLoop=1;jettySize=auto;html=1;exitX=0.75;exitY=0;exitDx=0;exitDy=0;endArrow=none;endFill=0;" parent="1" source="EP_qLhoWPCY1FDuJNaD8-5" target="W9jZJQIDUN-E1ysLY_Tf-280" edge="1">
          <mxGeometry relative="1" as="geometry">
            <mxPoint x="400" y="200" as="targetPoint" />
            <Array as="points">
              <mxPoint x="345" y="189" />
            </Array>
          </mxGeometry>
        </mxCell>
        <mxCell id="W9jZJQIDUN-E1ysLY_Tf-307" value="1" style="edgeStyle=orthogonalEdgeStyle;rounded=0;orthogonalLoop=1;jettySize=auto;html=1;endArrow=none;endFill=0;" parent="1" source="EP_qLhoWPCY1FDuJNaD8-5" target="W9jZJQIDUN-E1ysLY_Tf-308" edge="1">
          <mxGeometry x="-0.981" y="-16" relative="1" as="geometry">
            <mxPoint x="1170" y="230" as="targetPoint" />
            <Array as="points">
              <mxPoint x="450" y="304" />
              <mxPoint x="450" y="250" />
              <mxPoint x="810" y="250" />
              <mxPoint x="810" y="210" />
            </Array>
            <mxPoint x="-1" as="offset" />
          </mxGeometry>
        </mxCell>
        <mxCell id="EP_qLhoWPCY1FDuJNaD8-5" value="PC" style="swimlane;fontStyle=1;childLayout=stackLayout;horizontal=1;startSize=30;horizontalStack=0;resizeParent=1;resizeParentMax=0;resizeLast=0;collapsible=1;marginBottom=0;whiteSpace=wrap;html=1;rounded=0;shadow=0;glass=0;strokeColor=default;align=center;verticalAlign=middle;fontFamily=Helvetica;fontSize=13;fontColor=default;fillColor=#888daa;labelBackgroundColor=none;labelBorderColor=none;swimlaneFillColor=none;fillStyle=auto;" parent="1" vertex="1">
          <mxGeometry x="270" y="244" width="100" height="120" as="geometry">
            <mxRectangle x="10" y="120" width="80" height="30" as="alternateBounds" />
          </mxGeometry>
        </mxCell>
        <mxCell id="EP_qLhoWPCY1FDuJNaD8-6" value="Nome" style="text;strokeColor=none;fillColor=none;align=left;verticalAlign=middle;spacingLeft=4;spacingRight=4;overflow=hidden;points=[[0,0.5],[1,0.5]];portConstraint=eastwest;rotatable=0;whiteSpace=wrap;html=1;fontSize=12;fontFamily=Helvetica;fontColor=default;labelBackgroundColor=none;labelBorderColor=none;swimlaneFillColor=none;" parent="EP_qLhoWPCY1FDuJNaD8-5" vertex="1">
          <mxGeometry y="30" width="100" height="30" as="geometry" />
        </mxCell>
        <mxCell id="W9jZJQIDUN-E1ysLY_Tf-293" value="memorias" style="text;strokeColor=none;fillColor=none;align=left;verticalAlign=middle;spacingLeft=4;spacingRight=4;overflow=hidden;points=[[0,0.5],[1,0.5]];portConstraint=eastwest;rotatable=0;whiteSpace=wrap;html=1;fontSize=12;fontFamily=Helvetica;fontColor=default;labelBackgroundColor=none;labelBorderColor=none;swimlaneFillColor=none;" parent="EP_qLhoWPCY1FDuJNaD8-5" vertex="1">
          <mxGeometry y="60" width="100" height="30" as="geometry" />
        </mxCell>
        <mxCell id="W9jZJQIDUN-E1ysLY_Tf-291" value="knowDeus" style="text;strokeColor=none;fillColor=none;align=left;verticalAlign=middle;spacingLeft=4;spacingRight=4;overflow=hidden;points=[[0,0.5],[1,0.5]];portConstraint=eastwest;rotatable=0;whiteSpace=wrap;html=1;fontSize=12;fontFamily=Helvetica;fontColor=default;labelBackgroundColor=none;labelBorderColor=none;swimlaneFillColor=none;" parent="EP_qLhoWPCY1FDuJNaD8-5" vertex="1">
          <mxGeometry y="90" width="100" height="30" as="geometry" />
        </mxCell>
        <mxCell id="W9jZJQIDUN-E1ysLY_Tf-15" value="1" style="edgeStyle=orthogonalEdgeStyle;rounded=0;orthogonalLoop=1;jettySize=auto;html=1;entryX=0;entryY=0;entryDx=0;entryDy=0;endArrow=none;endFill=0;" parent="1" source="EP_qLhoWPCY1FDuJNaD8-25" target="EP_qLhoWPCY1FDuJNaD8-27" edge="1">
          <mxGeometry x="0.9728" y="10" relative="1" as="geometry">
            <Array as="points">
              <mxPoint x="1110" y="36" />
              <mxPoint x="1110" y="20" />
            </Array>
            <mxPoint as="offset" />
          </mxGeometry>
        </mxCell>
        <mxCell id="EP_qLhoWPCY1FDuJNaD8-25" value="Está" style="html=1;whiteSpace=wrap;aspect=fixed;shape=isoRectangle;rounded=0;shadow=0;glass=0;strokeColor=default;align=center;verticalAlign=middle;fontFamily=Helvetica;fontSize=12;fontColor=default;startSize=30;fillColor=default;" parent="1" vertex="1">
          <mxGeometry x="1000" width="100" height="72" as="geometry" />
        </mxCell>
        <mxCell id="EP_qLhoWPCY1FDuJNaD8-27" value="Localização" style="swimlane;fontStyle=1;childLayout=stackLayout;horizontal=1;startSize=30;horizontalStack=0;resizeParent=1;resizeParentMax=0;resizeLast=0;collapsible=1;marginBottom=0;whiteSpace=wrap;html=1;rounded=0;shadow=0;glass=0;strokeColor=default;align=center;verticalAlign=middle;fontFamily=Helvetica;fontSize=13;fontColor=default;fillColor=#888daa;labelBackgroundColor=none;labelBorderColor=none;swimlaneFillColor=none;fillStyle=auto;" parent="1" vertex="1">
          <mxGeometry x="1820" y="5" width="100" height="90" as="geometry">
            <mxRectangle x="10" y="120" width="80" height="30" as="alternateBounds" />
          </mxGeometry>
        </mxCell>
        <mxCell id="W9jZJQIDUN-E1ysLY_Tf-287" value="&lt;u&gt;Chave Primaria&lt;/u&gt;" style="text;strokeColor=none;fillColor=none;align=left;verticalAlign=middle;spacingLeft=4;spacingRight=4;overflow=hidden;points=[[0,0.5],[1,0.5]];portConstraint=eastwest;rotatable=0;whiteSpace=wrap;html=1;fontSize=12;fontFamily=Helvetica;fontColor=default;labelBackgroundColor=none;labelBorderColor=none;swimlaneFillColor=none;" parent="EP_qLhoWPCY1FDuJNaD8-27" vertex="1">
          <mxGeometry y="30" width="100" height="30" as="geometry" />
        </mxCell>
        <mxCell id="EP_qLhoWPCY1FDuJNaD8-28" value="&lt;u&gt;id regiao&lt;/u&gt;" style="text;strokeColor=none;fillColor=none;align=left;verticalAlign=middle;spacingLeft=4;spacingRight=4;overflow=hidden;points=[[0,0.5],[1,0.5]];portConstraint=eastwest;rotatable=0;whiteSpace=wrap;html=1;fontSize=12;fontFamily=Helvetica;fontColor=default;labelBackgroundColor=none;labelBorderColor=none;swimlaneFillColor=none;" parent="EP_qLhoWPCY1FDuJNaD8-27" vertex="1">
          <mxGeometry y="60" width="100" height="30" as="geometry" />
        </mxCell>
        <mxCell id="EP_qLhoWPCY1FDuJNaD8-41" value="Fase" style="swimlane;fontStyle=1;childLayout=stackLayout;horizontal=1;startSize=30;horizontalStack=0;resizeParent=1;resizeParentMax=0;resizeLast=0;collapsible=1;marginBottom=0;whiteSpace=wrap;html=1;rounded=0;shadow=0;glass=0;strokeColor=default;align=center;verticalAlign=middle;fontFamily=Helvetica;fontSize=13;fontColor=default;fillColor=#888daa;labelBackgroundColor=none;labelBorderColor=none;swimlaneFillColor=none;fillStyle=auto;" parent="1" vertex="1">
          <mxGeometry x="2210" y="20" width="100" height="90" as="geometry">
            <mxRectangle x="10" y="120" width="80" height="30" as="alternateBounds" />
          </mxGeometry>
        </mxCell>
        <mxCell id="W9jZJQIDUN-E1ysLY_Tf-166" value="&lt;u&gt;Chave Primaria&lt;/u&gt;" style="text;strokeColor=none;fillColor=none;align=left;verticalAlign=middle;spacingLeft=4;spacingRight=4;overflow=hidden;points=[[0,0.5],[1,0.5]];portConstraint=eastwest;rotatable=0;whiteSpace=wrap;html=1;fontSize=12;fontFamily=Helvetica;fontColor=default;labelBackgroundColor=none;labelBorderColor=none;swimlaneFillColor=none;" parent="EP_qLhoWPCY1FDuJNaD8-41" vertex="1">
          <mxGeometry y="30" width="100" height="30" as="geometry" />
        </mxCell>
        <mxCell id="EP_qLhoWPCY1FDuJNaD8-42" value="&lt;u&gt;Chave Primaria&lt;/u&gt;" style="text;strokeColor=none;fillColor=none;align=left;verticalAlign=middle;spacingLeft=4;spacingRight=4;overflow=hidden;points=[[0,0.5],[1,0.5]];portConstraint=eastwest;rotatable=0;whiteSpace=wrap;html=1;fontSize=12;fontFamily=Helvetica;fontColor=default;labelBackgroundColor=none;labelBorderColor=none;swimlaneFillColor=none;" parent="EP_qLhoWPCY1FDuJNaD8-41" vertex="1">
          <mxGeometry y="60" width="100" height="30" as="geometry" />
        </mxCell>
        <mxCell id="EP_qLhoWPCY1FDuJNaD8-43" value="Região" style="swimlane;fontStyle=1;childLayout=stackLayout;horizontal=1;startSize=30;horizontalStack=0;resizeParent=1;resizeParentMax=0;resizeLast=0;collapsible=1;marginBottom=0;whiteSpace=wrap;html=1;rounded=0;shadow=0;glass=0;strokeColor=default;align=center;verticalAlign=middle;fontFamily=Helvetica;fontSize=13;fontColor=default;fillColor=#888daa;labelBackgroundColor=none;labelBorderColor=none;swimlaneFillColor=none;fillStyle=auto;" parent="1" vertex="1">
          <mxGeometry x="2050" y="180" width="100" height="150" as="geometry">
            <mxRectangle x="1290" y="220" width="80" height="30" as="alternateBounds" />
          </mxGeometry>
        </mxCell>
        <mxCell id="EP_qLhoWPCY1FDuJNaD8-44" value="&lt;u&gt;Chave Primaria&lt;/u&gt;" style="text;strokeColor=none;fillColor=none;align=left;verticalAlign=middle;spacingLeft=4;spacingRight=4;overflow=hidden;points=[[0,0.5],[1,0.5]];portConstraint=eastwest;rotatable=0;whiteSpace=wrap;html=1;fontSize=12;fontFamily=Helvetica;fontColor=default;labelBackgroundColor=none;labelBorderColor=none;swimlaneFillColor=none;" parent="EP_qLhoWPCY1FDuJNaD8-43" vertex="1">
          <mxGeometry y="30" width="100" height="30" as="geometry" />
        </mxCell>
        <mxCell id="W9jZJQIDUN-E1ysLY_Tf-282" value="Descrição" style="text;strokeColor=none;fillColor=none;align=left;verticalAlign=middle;spacingLeft=4;spacingRight=4;overflow=hidden;points=[[0,0.5],[1,0.5]];portConstraint=eastwest;rotatable=0;whiteSpace=wrap;html=1;fontSize=12;fontFamily=Helvetica;fontColor=default;labelBackgroundColor=none;labelBorderColor=none;swimlaneFillColor=none;" parent="EP_qLhoWPCY1FDuJNaD8-43" vertex="1">
          <mxGeometry y="60" width="100" height="30" as="geometry" />
        </mxCell>
        <mxCell id="W9jZJQIDUN-E1ysLY_Tf-248" value="Nome" style="text;strokeColor=none;fillColor=none;align=left;verticalAlign=middle;spacingLeft=4;spacingRight=4;overflow=hidden;points=[[0,0.5],[1,0.5]];portConstraint=eastwest;rotatable=0;whiteSpace=wrap;html=1;fontSize=12;fontFamily=Helvetica;fontColor=default;labelBackgroundColor=none;labelBorderColor=none;swimlaneFillColor=none;" parent="EP_qLhoWPCY1FDuJNaD8-43" vertex="1">
          <mxGeometry y="90" width="100" height="30" as="geometry" />
        </mxCell>
        <mxCell id="W9jZJQIDUN-E1ysLY_Tf-247" value="Isvisited" style="text;strokeColor=none;fillColor=none;align=left;verticalAlign=middle;spacingLeft=4;spacingRight=4;overflow=hidden;points=[[0,0.5],[1,0.5]];portConstraint=eastwest;rotatable=0;whiteSpace=wrap;html=1;fontSize=12;fontFamily=Helvetica;fontColor=default;labelBackgroundColor=none;labelBorderColor=none;swimlaneFillColor=none;" parent="EP_qLhoWPCY1FDuJNaD8-43" vertex="1">
          <mxGeometry y="120" width="100" height="30" as="geometry" />
        </mxCell>
        <mxCell id="EP_qLhoWPCY1FDuJNaD8-45" value="Estrutura" style="swimlane;fontStyle=1;childLayout=stackLayout;horizontal=1;startSize=30;horizontalStack=0;resizeParent=1;resizeParentMax=0;resizeLast=0;collapsible=1;marginBottom=0;whiteSpace=wrap;html=1;rounded=0;shadow=0;glass=0;strokeColor=default;align=center;verticalAlign=middle;fontFamily=Helvetica;fontSize=13;fontColor=default;fillColor=#888daa;labelBackgroundColor=none;labelBorderColor=none;swimlaneFillColor=none;fillStyle=auto;" parent="1" vertex="1">
          <mxGeometry x="2210" y="410" width="100" height="120" as="geometry">
            <mxRectangle x="10" y="120" width="80" height="30" as="alternateBounds" />
          </mxGeometry>
        </mxCell>
        <mxCell id="EP_qLhoWPCY1FDuJNaD8-46" value="&lt;u&gt;id estrutura&lt;/u&gt;" style="text;strokeColor=none;fillColor=none;align=left;verticalAlign=middle;spacingLeft=4;spacingRight=4;overflow=hidden;points=[[0,0.5],[1,0.5]];portConstraint=eastwest;rotatable=0;whiteSpace=wrap;html=1;fontSize=12;fontFamily=Helvetica;fontColor=default;labelBackgroundColor=none;labelBorderColor=none;swimlaneFillColor=none;" parent="EP_qLhoWPCY1FDuJNaD8-45" vertex="1">
          <mxGeometry y="30" width="100" height="30" as="geometry" />
        </mxCell>
        <mxCell id="W9jZJQIDUN-E1ysLY_Tf-245" value="Nome" style="text;strokeColor=none;fillColor=none;align=left;verticalAlign=middle;spacingLeft=4;spacingRight=4;overflow=hidden;points=[[0,0.5],[1,0.5]];portConstraint=eastwest;rotatable=0;whiteSpace=wrap;html=1;fontSize=12;fontFamily=Helvetica;fontColor=default;labelBackgroundColor=none;labelBorderColor=none;swimlaneFillColor=none;" parent="EP_qLhoWPCY1FDuJNaD8-45" vertex="1">
          <mxGeometry y="60" width="100" height="30" as="geometry" />
        </mxCell>
        <mxCell id="W9jZJQIDUN-E1ysLY_Tf-244" value="Sala inicial" style="text;strokeColor=none;fillColor=none;align=left;verticalAlign=middle;spacingLeft=4;spacingRight=4;overflow=hidden;points=[[0,0.5],[1,0.5]];portConstraint=eastwest;rotatable=0;whiteSpace=wrap;html=1;fontSize=12;fontFamily=Helvetica;fontColor=default;labelBackgroundColor=none;labelBorderColor=none;swimlaneFillColor=none;" parent="EP_qLhoWPCY1FDuJNaD8-45" vertex="1">
          <mxGeometry y="90" width="100" height="30" as="geometry" />
        </mxCell>
        <mxCell id="W9jZJQIDUN-E1ysLY_Tf-213" value="1" style="edgeStyle=orthogonalEdgeStyle;rounded=0;orthogonalLoop=1;jettySize=auto;html=1;endArrow=none;endFill=0;" parent="1" source="EP_qLhoWPCY1FDuJNaD8-47" target="W9jZJQIDUN-E1ysLY_Tf-212" edge="1">
          <mxGeometry x="-0.5556" y="-10" relative="1" as="geometry">
            <Array as="points">
              <mxPoint x="2030" y="604" />
              <mxPoint x="2030" y="604" />
            </Array>
            <mxPoint as="offset" />
          </mxGeometry>
        </mxCell>
        <mxCell id="EP_qLhoWPCY1FDuJNaD8-47" value="Sala" style="swimlane;fontStyle=1;childLayout=stackLayout;horizontal=1;startSize=30;horizontalStack=0;resizeParent=1;resizeParentMax=0;resizeLast=0;collapsible=1;marginBottom=0;whiteSpace=wrap;html=1;rounded=0;shadow=0;glass=0;strokeColor=default;align=center;verticalAlign=middle;fontFamily=Helvetica;fontSize=13;fontColor=default;fillColor=#888daa;labelBackgroundColor=none;labelBorderColor=none;swimlaneFillColor=none;fillStyle=auto;" parent="1" vertex="1">
          <mxGeometry x="2050.05" y="556" width="100" height="120" as="geometry">
            <mxRectangle x="10" y="120" width="80" height="30" as="alternateBounds" />
          </mxGeometry>
        </mxCell>
        <mxCell id="EP_qLhoWPCY1FDuJNaD8-48" value="&lt;u&gt;id sala&lt;/u&gt;" style="text;strokeColor=none;fillColor=none;align=left;verticalAlign=middle;spacingLeft=4;spacingRight=4;overflow=hidden;points=[[0,0.5],[1,0.5]];portConstraint=eastwest;rotatable=0;whiteSpace=wrap;html=1;fontSize=12;fontFamily=Helvetica;fontColor=default;labelBackgroundColor=none;labelBorderColor=none;swimlaneFillColor=none;" parent="EP_qLhoWPCY1FDuJNaD8-47" vertex="1">
          <mxGeometry y="30" width="100" height="30" as="geometry" />
        </mxCell>
        <mxCell id="W9jZJQIDUN-E1ysLY_Tf-314" value="Descrição" style="text;strokeColor=none;fillColor=none;align=left;verticalAlign=middle;spacingLeft=4;spacingRight=4;overflow=hidden;points=[[0,0.5],[1,0.5]];portConstraint=eastwest;rotatable=0;whiteSpace=wrap;html=1;fontSize=12;fontFamily=Helvetica;fontColor=default;labelBackgroundColor=none;labelBorderColor=none;swimlaneFillColor=none;" parent="EP_qLhoWPCY1FDuJNaD8-47" vertex="1">
          <mxGeometry y="60" width="100" height="30" as="geometry" />
        </mxCell>
        <mxCell id="W9jZJQIDUN-E1ysLY_Tf-283" value="Temevento" style="text;strokeColor=none;fillColor=none;align=left;verticalAlign=middle;spacingLeft=4;spacingRight=4;overflow=hidden;points=[[0,0.5],[1,0.5]];portConstraint=eastwest;rotatable=0;whiteSpace=wrap;html=1;fontSize=12;fontFamily=Helvetica;fontColor=default;labelBackgroundColor=none;labelBorderColor=none;swimlaneFillColor=none;" parent="EP_qLhoWPCY1FDuJNaD8-47" vertex="1">
          <mxGeometry y="90" width="100" height="30" as="geometry" />
        </mxCell>
        <mxCell id="EP_qLhoWPCY1FDuJNaD8-62" value="1" style="edgeStyle=orthogonalEdgeStyle;rounded=0;orthogonalLoop=1;jettySize=auto;html=1;endArrow=none;endFill=0;" parent="1" source="EP_qLhoWPCY1FDuJNaD8-60" target="EP_qLhoWPCY1FDuJNaD8-41" edge="1">
          <mxGeometry x="0.6667" y="-10" relative="1" as="geometry">
            <mxPoint as="offset" />
          </mxGeometry>
        </mxCell>
        <mxCell id="W9jZJQIDUN-E1ysLY_Tf-45" value="1..N" style="edgeStyle=orthogonalEdgeStyle;rounded=0;orthogonalLoop=1;jettySize=auto;html=1;endArrow=none;endFill=0;shape=link;" parent="1" source="EP_qLhoWPCY1FDuJNaD8-60" target="EP_qLhoWPCY1FDuJNaD8-43" edge="1">
          <mxGeometry x="0.4595" y="-10" relative="1" as="geometry">
            <Array as="points">
              <mxPoint x="2170" y="210" />
              <mxPoint x="2170" y="210" />
            </Array>
            <mxPoint as="offset" />
          </mxGeometry>
        </mxCell>
        <mxCell id="EP_qLhoWPCY1FDuJNaD8-60" value="Possui" style="html=1;whiteSpace=wrap;aspect=fixed;shape=isoRectangle;rounded=0;shadow=0;glass=0;strokeColor=default;align=center;verticalAlign=middle;fontFamily=Helvetica;fontSize=12;fontColor=default;startSize=30;fillColor=default;direction=south;" parent="1" vertex="1">
          <mxGeometry x="2224" y="160" width="72" height="100" as="geometry" />
        </mxCell>
        <mxCell id="EP_qLhoWPCY1FDuJNaD8-64" value="0..N" style="edgeStyle=orthogonalEdgeStyle;rounded=0;orthogonalLoop=1;jettySize=auto;html=1;endArrow=none;endFill=0;shape=link;" parent="1" source="EP_qLhoWPCY1FDuJNaD8-63" target="EP_qLhoWPCY1FDuJNaD8-45" edge="1">
          <mxGeometry x="0.6667" y="20" relative="1" as="geometry">
            <mxPoint as="offset" />
          </mxGeometry>
        </mxCell>
        <mxCell id="W9jZJQIDUN-E1ysLY_Tf-52" value="1" style="edgeStyle=orthogonalEdgeStyle;rounded=0;orthogonalLoop=1;jettySize=auto;html=1;endArrow=none;endFill=0;" parent="1" source="EP_qLhoWPCY1FDuJNaD8-63" target="EP_qLhoWPCY1FDuJNaD8-43" edge="1">
          <mxGeometry x="0.8824" y="-10" relative="1" as="geometry">
            <Array as="points">
              <mxPoint x="2260" y="280" />
              <mxPoint x="2200" y="280" />
              <mxPoint x="2200" y="260" />
            </Array>
            <mxPoint as="offset" />
          </mxGeometry>
        </mxCell>
        <mxCell id="EP_qLhoWPCY1FDuJNaD8-63" value="Possui" style="html=1;whiteSpace=wrap;aspect=fixed;shape=isoRectangle;rounded=0;shadow=0;glass=0;strokeColor=default;align=center;verticalAlign=middle;fontFamily=Helvetica;fontSize=12;fontColor=default;startSize=30;fillColor=default;direction=south;" parent="1" vertex="1">
          <mxGeometry x="2224" y="290" width="72" height="100" as="geometry" />
        </mxCell>
        <mxCell id="EP_qLhoWPCY1FDuJNaD8-67" value="1" style="edgeStyle=orthogonalEdgeStyle;rounded=0;orthogonalLoop=1;jettySize=auto;html=1;endArrow=none;endFill=0;shape=link;" parent="1" source="EP_qLhoWPCY1FDuJNaD8-66" target="EP_qLhoWPCY1FDuJNaD8-45" edge="1">
          <mxGeometry x="0.6667" y="-10" relative="1" as="geometry">
            <mxPoint as="offset" />
          </mxGeometry>
        </mxCell>
        <mxCell id="EP_qLhoWPCY1FDuJNaD8-68" value="1..N" style="edgeStyle=orthogonalEdgeStyle;rounded=0;orthogonalLoop=1;jettySize=auto;html=1;endArrow=none;endFill=0;shape=link;" parent="1" source="EP_qLhoWPCY1FDuJNaD8-66" target="EP_qLhoWPCY1FDuJNaD8-47" edge="1">
          <mxGeometry x="0.6667" y="20" relative="1" as="geometry">
            <mxPoint as="offset" />
          </mxGeometry>
        </mxCell>
        <mxCell id="EP_qLhoWPCY1FDuJNaD8-66" value="Possui" style="html=1;whiteSpace=wrap;aspect=fixed;shape=isoRectangle;rounded=0;shadow=0;glass=0;strokeColor=default;align=center;verticalAlign=middle;fontFamily=Helvetica;fontSize=12;fontColor=default;startSize=30;fillColor=default;direction=south;" parent="1" vertex="1">
          <mxGeometry x="2224" y="551" width="72" height="100" as="geometry" />
        </mxCell>
        <mxCell id="W9jZJQIDUN-E1ysLY_Tf-195" style="edgeStyle=orthogonalEdgeStyle;rounded=0;orthogonalLoop=1;jettySize=auto;html=1;jumpStyle=sharp;endArrow=none;endFill=0;" parent="1" source="EP_qLhoWPCY1FDuJNaD8-86" target="W9jZJQIDUN-E1ysLY_Tf-194" edge="1">
          <mxGeometry relative="1" as="geometry">
            <Array as="points">
              <mxPoint x="795" y="150" />
              <mxPoint x="1140" y="150" />
              <mxPoint x="1140" y="74" />
            </Array>
          </mxGeometry>
        </mxCell>
        <mxCell id="W9jZJQIDUN-E1ysLY_Tf-197" value="0..N" style="edgeLabel;html=1;align=center;verticalAlign=middle;resizable=0;points=[];" parent="W9jZJQIDUN-E1ysLY_Tf-195" vertex="1" connectable="0">
          <mxGeometry x="-0.9324" y="1" relative="1" as="geometry">
            <mxPoint x="16" y="12" as="offset" />
          </mxGeometry>
        </mxCell>
        <mxCell id="EP_qLhoWPCY1FDuJNaD8-86" value="Itens" style="swimlane;fontStyle=1;childLayout=stackLayout;horizontal=1;startSize=30;horizontalStack=0;resizeParent=1;resizeParentMax=0;resizeLast=0;collapsible=1;marginBottom=0;whiteSpace=wrap;html=1;rounded=0;shadow=0;glass=0;strokeColor=default;align=center;verticalAlign=middle;fontFamily=Helvetica;fontSize=13;fontColor=default;fillColor=#888daa;labelBackgroundColor=none;labelBorderColor=none;swimlaneFillColor=none;fillStyle=auto;" parent="1" vertex="1">
          <mxGeometry x="745" y="290" width="100" height="120" as="geometry">
            <mxRectangle x="10" y="120" width="80" height="30" as="alternateBounds" />
          </mxGeometry>
        </mxCell>
        <mxCell id="W9jZJQIDUN-E1ysLY_Tf-161" value="&lt;u&gt;iditem&lt;/u&gt;" style="text;strokeColor=none;fillColor=none;align=left;verticalAlign=middle;spacingLeft=4;spacingRight=4;overflow=hidden;points=[[0,0.5],[1,0.5]];portConstraint=eastwest;rotatable=0;whiteSpace=wrap;html=1;fontSize=12;fontFamily=Helvetica;fontColor=default;labelBackgroundColor=none;labelBorderColor=none;swimlaneFillColor=none;" parent="EP_qLhoWPCY1FDuJNaD8-86" vertex="1">
          <mxGeometry y="30" width="100" height="30" as="geometry" />
        </mxCell>
        <mxCell id="W9jZJQIDUN-E1ysLY_Tf-295" value="Descrição" style="text;strokeColor=none;fillColor=none;align=left;verticalAlign=middle;spacingLeft=4;spacingRight=4;overflow=hidden;points=[[0,0.5],[1,0.5]];portConstraint=eastwest;rotatable=0;whiteSpace=wrap;html=1;fontSize=12;fontFamily=Helvetica;fontColor=default;labelBackgroundColor=none;labelBorderColor=none;swimlaneFillColor=none;" parent="EP_qLhoWPCY1FDuJNaD8-86" vertex="1">
          <mxGeometry y="60" width="100" height="30" as="geometry" />
        </mxCell>
        <mxCell id="EP_qLhoWPCY1FDuJNaD8-87" value="&lt;b&gt;Tipo&lt;/b&gt;" style="text;strokeColor=none;fillColor=none;align=left;verticalAlign=middle;spacingLeft=4;spacingRight=4;overflow=hidden;points=[[0,0.5],[1,0.5]];portConstraint=eastwest;rotatable=0;whiteSpace=wrap;html=1;fontSize=12;fontFamily=Helvetica;fontColor=default;labelBackgroundColor=none;labelBorderColor=none;swimlaneFillColor=none;" parent="EP_qLhoWPCY1FDuJNaD8-86" vertex="1">
          <mxGeometry y="90" width="100" height="30" as="geometry" />
        </mxCell>
        <mxCell id="W9jZJQIDUN-E1ysLY_Tf-180" value="0..N" style="edgeStyle=orthogonalEdgeStyle;rounded=0;orthogonalLoop=1;jettySize=auto;html=1;endArrow=none;endFill=0;shape=link;" parent="1" source="EP_qLhoWPCY1FDuJNaD8-88" target="W9jZJQIDUN-E1ysLY_Tf-179" edge="1">
          <mxGeometry x="-0.8148" y="-20" relative="1" as="geometry">
            <mxPoint as="offset" />
          </mxGeometry>
        </mxCell>
        <mxCell id="EP_qLhoWPCY1FDuJNaD8-88" value="Objeto" style="swimlane;fontStyle=1;childLayout=stackLayout;horizontal=1;startSize=30;horizontalStack=0;resizeParent=1;resizeParentMax=0;resizeLast=0;collapsible=1;marginBottom=0;whiteSpace=wrap;html=1;rounded=0;shadow=0;glass=0;strokeColor=default;align=center;verticalAlign=middle;fontFamily=Helvetica;fontSize=13;fontColor=default;fillColor=#888daa;labelBackgroundColor=none;labelBorderColor=none;swimlaneFillColor=none;fillStyle=auto;" parent="1" vertex="1">
          <mxGeometry x="1540" y="370" width="100" height="60" as="geometry">
            <mxRectangle x="10" y="120" width="80" height="30" as="alternateBounds" />
          </mxGeometry>
        </mxCell>
        <mxCell id="EP_qLhoWPCY1FDuJNaD8-89" value="&lt;u&gt;id objeto&lt;/u&gt;" style="text;strokeColor=none;fillColor=none;align=left;verticalAlign=middle;spacingLeft=4;spacingRight=4;overflow=hidden;points=[[0,0.5],[1,0.5]];portConstraint=eastwest;rotatable=0;whiteSpace=wrap;html=1;fontSize=12;fontFamily=Helvetica;fontColor=default;labelBackgroundColor=none;labelBorderColor=none;swimlaneFillColor=none;" parent="EP_qLhoWPCY1FDuJNaD8-88" vertex="1">
          <mxGeometry y="30" width="100" height="30" as="geometry" />
        </mxCell>
        <mxCell id="EP_qLhoWPCY1FDuJNaD8-90" value="Equipamento" style="swimlane;fontStyle=1;childLayout=stackLayout;horizontal=1;startSize=30;horizontalStack=0;resizeParent=1;resizeParentMax=0;resizeLast=0;collapsible=1;marginBottom=0;whiteSpace=wrap;html=1;rounded=0;shadow=0;glass=0;strokeColor=default;align=center;verticalAlign=middle;fontFamily=Helvetica;fontSize=13;fontColor=default;fillColor=#888daa;labelBackgroundColor=none;labelBorderColor=none;swimlaneFillColor=none;fillStyle=auto;" parent="1" vertex="1">
          <mxGeometry x="640" y="574" width="100" height="60" as="geometry">
            <mxRectangle x="10" y="120" width="80" height="30" as="alternateBounds" />
          </mxGeometry>
        </mxCell>
        <mxCell id="W9jZJQIDUN-E1ysLY_Tf-297" value="Função" style="text;strokeColor=none;fillColor=none;align=left;verticalAlign=middle;spacingLeft=4;spacingRight=4;overflow=hidden;points=[[0,0.5],[1,0.5]];portConstraint=eastwest;rotatable=0;whiteSpace=wrap;html=1;fontSize=12;fontFamily=Helvetica;fontColor=default;labelBackgroundColor=none;labelBorderColor=none;swimlaneFillColor=none;" parent="EP_qLhoWPCY1FDuJNaD8-90" vertex="1">
          <mxGeometry y="30" width="100" height="30" as="geometry" />
        </mxCell>
        <mxCell id="W9jZJQIDUN-E1ysLY_Tf-209" value="0..1" style="edgeStyle=orthogonalEdgeStyle;rounded=0;orthogonalLoop=1;jettySize=auto;html=1;endArrow=none;endFill=0;" parent="1" source="W9jZJQIDUN-E1ysLY_Tf-17" target="W9jZJQIDUN-E1ysLY_Tf-199" edge="1">
          <mxGeometry x="-0.939" y="20" relative="1" as="geometry">
            <Array as="points">
              <mxPoint x="940" y="335" />
            </Array>
            <mxPoint as="offset" />
          </mxGeometry>
        </mxCell>
        <mxCell id="W9jZJQIDUN-E1ysLY_Tf-239" value="utilizando" style="edgeLabel;html=1;align=center;verticalAlign=middle;resizable=0;points=[];" parent="W9jZJQIDUN-E1ysLY_Tf-209" vertex="1" connectable="0">
          <mxGeometry x="-0.7916" y="1" relative="1" as="geometry">
            <mxPoint x="41" y="34" as="offset" />
          </mxGeometry>
        </mxCell>
        <mxCell id="W9jZJQIDUN-E1ysLY_Tf-17" value="Item" style="swimlane;fontStyle=1;childLayout=stackLayout;horizontal=1;startSize=30;horizontalStack=0;resizeParent=1;resizeParentMax=0;resizeLast=0;collapsible=1;marginBottom=0;whiteSpace=wrap;html=1;rounded=0;shadow=0;glass=0;strokeColor=default;align=center;verticalAlign=middle;fontFamily=Helvetica;fontSize=13;fontColor=default;fillColor=#888daa;labelBackgroundColor=none;labelBorderColor=none;swimlaneFillColor=none;fillStyle=auto;" parent="1" vertex="1">
          <mxGeometry x="850" y="574" width="100" height="90" as="geometry">
            <mxRectangle x="10" y="120" width="80" height="30" as="alternateBounds" />
          </mxGeometry>
        </mxCell>
        <mxCell id="W9jZJQIDUN-E1ysLY_Tf-306" value="Interage com" style="text;strokeColor=none;fillColor=none;align=left;verticalAlign=middle;spacingLeft=4;spacingRight=4;overflow=hidden;points=[[0,0.5],[1,0.5]];portConstraint=eastwest;rotatable=0;whiteSpace=wrap;html=1;fontSize=12;fontFamily=Helvetica;fontColor=default;labelBackgroundColor=none;labelBorderColor=none;swimlaneFillColor=none;" parent="W9jZJQIDUN-E1ysLY_Tf-17" vertex="1">
          <mxGeometry y="30" width="100" height="30" as="geometry" />
        </mxCell>
        <mxCell id="W9jZJQIDUN-E1ysLY_Tf-305" value="temreceita" style="text;strokeColor=none;fillColor=none;align=left;verticalAlign=middle;spacingLeft=4;spacingRight=4;overflow=hidden;points=[[0,0.5],[1,0.5]];portConstraint=eastwest;rotatable=0;whiteSpace=wrap;html=1;fontSize=12;fontFamily=Helvetica;fontColor=default;labelBackgroundColor=none;labelBorderColor=none;swimlaneFillColor=none;" parent="W9jZJQIDUN-E1ysLY_Tf-17" vertex="1">
          <mxGeometry y="60" width="100" height="30" as="geometry" />
        </mxCell>
        <mxCell id="W9jZJQIDUN-E1ysLY_Tf-21" value="0..1" style="edgeStyle=orthogonalEdgeStyle;rounded=0;orthogonalLoop=1;jettySize=auto;html=1;endArrow=none;endFill=0;" parent="1" source="W9jZJQIDUN-E1ysLY_Tf-19" target="EP_qLhoWPCY1FDuJNaD8-90" edge="1">
          <mxGeometry x="0.7909" y="-20" relative="1" as="geometry">
            <mxPoint as="offset" />
          </mxGeometry>
        </mxCell>
        <mxCell id="W9jZJQIDUN-E1ysLY_Tf-223" value="necessario&lt;br&gt;ter" style="edgeLabel;html=1;align=center;verticalAlign=middle;resizable=0;points=[];" parent="W9jZJQIDUN-E1ysLY_Tf-21" vertex="1" connectable="0">
          <mxGeometry x="0.259" y="-2" relative="1" as="geometry">
            <mxPoint x="28" y="-10" as="offset" />
          </mxGeometry>
        </mxCell>
        <mxCell id="W9jZJQIDUN-E1ysLY_Tf-23" value="2" style="edgeStyle=orthogonalEdgeStyle;rounded=0;orthogonalLoop=1;jettySize=auto;html=1;endArrow=none;endFill=0;" parent="1" source="W9jZJQIDUN-E1ysLY_Tf-19" target="W9jZJQIDUN-E1ysLY_Tf-17" edge="1">
          <mxGeometry x="0.7908" y="-10" relative="1" as="geometry">
            <mxPoint as="offset" />
          </mxGeometry>
        </mxCell>
        <mxCell id="W9jZJQIDUN-E1ysLY_Tf-222" value="combinados" style="edgeLabel;html=1;align=center;verticalAlign=middle;resizable=0;points=[];" parent="W9jZJQIDUN-E1ysLY_Tf-23" vertex="1" connectable="0">
          <mxGeometry x="0.3301" y="-2" relative="1" as="geometry">
            <mxPoint x="38" y="-5" as="offset" />
          </mxGeometry>
        </mxCell>
        <mxCell id="W9jZJQIDUN-E1ysLY_Tf-210" value="1..2" style="edgeStyle=orthogonalEdgeStyle;rounded=0;orthogonalLoop=1;jettySize=auto;html=1;endArrow=none;endFill=0;" parent="1" source="W9jZJQIDUN-E1ysLY_Tf-19" target="W9jZJQIDUN-E1ysLY_Tf-17" edge="1">
          <mxGeometry x="0.7278" y="14" relative="1" as="geometry">
            <Array as="points">
              <mxPoint x="795" y="604" />
            </Array>
            <mxPoint as="offset" />
          </mxGeometry>
        </mxCell>
        <mxCell id="W9jZJQIDUN-E1ysLY_Tf-221" value="gera" style="edgeLabel;html=1;align=center;verticalAlign=middle;resizable=0;points=[];" parent="W9jZJQIDUN-E1ysLY_Tf-210" vertex="1" connectable="0">
          <mxGeometry x="-0.5236" y="2" relative="1" as="geometry">
            <mxPoint x="2" y="-71" as="offset" />
          </mxGeometry>
        </mxCell>
        <mxCell id="W9jZJQIDUN-E1ysLY_Tf-19" value="Combina" style="html=1;whiteSpace=wrap;aspect=fixed;shape=isoRectangle;rounded=0;shadow=0;glass=0;strokeColor=default;align=center;verticalAlign=middle;fontFamily=Helvetica;fontSize=12;fontColor=default;startSize=30;fillColor=default;" parent="1" vertex="1">
          <mxGeometry x="745" y="696" width="100" height="72" as="geometry" />
        </mxCell>
        <mxCell id="W9jZJQIDUN-E1ysLY_Tf-50" value="0..4" style="edgeStyle=orthogonalEdgeStyle;rounded=0;orthogonalLoop=1;jettySize=auto;html=1;endArrow=none;endFill=0;" parent="1" source="W9jZJQIDUN-E1ysLY_Tf-37" target="EP_qLhoWPCY1FDuJNaD8-43" edge="1">
          <mxGeometry x="0.6154" y="10" relative="1" as="geometry">
            <mxPoint x="2090" y="240" as="targetPoint" />
            <Array as="points">
              <mxPoint x="2030" y="366" />
              <mxPoint x="2030" y="290" />
            </Array>
            <mxPoint as="offset" />
          </mxGeometry>
        </mxCell>
        <mxCell id="W9jZJQIDUN-E1ysLY_Tf-37" value="conecta" style="html=1;whiteSpace=wrap;aspect=fixed;shape=isoRectangle;rounded=0;shadow=0;glass=0;strokeColor=default;align=center;verticalAlign=middle;fontFamily=Helvetica;fontSize=12;fontColor=default;startSize=30;fillColor=default;direction=west;" parent="1" vertex="1">
          <mxGeometry x="2050.05" y="330" width="100" height="72" as="geometry" />
        </mxCell>
        <mxCell id="W9jZJQIDUN-E1ysLY_Tf-46" value="1" style="edgeStyle=orthogonalEdgeStyle;rounded=0;orthogonalLoop=1;jettySize=auto;html=1;endArrow=none;endFill=0;" parent="1" source="W9jZJQIDUN-E1ysLY_Tf-37" target="EP_qLhoWPCY1FDuJNaD8-43" edge="1">
          <mxGeometry x="0.8077" y="-10" relative="1" as="geometry">
            <mxPoint x="2110" y="240" as="targetPoint" />
            <Array as="points">
              <mxPoint x="2170" y="366" />
              <mxPoint x="2170" y="290" />
            </Array>
            <mxPoint as="offset" />
          </mxGeometry>
        </mxCell>
        <mxCell id="W9jZJQIDUN-E1ysLY_Tf-56" value="0..3" style="edgeStyle=orthogonalEdgeStyle;rounded=0;orthogonalLoop=1;jettySize=auto;html=1;endArrow=none;endFill=0;" parent="1" source="W9jZJQIDUN-E1ysLY_Tf-57" target="EP_qLhoWPCY1FDuJNaD8-47" edge="1">
          <mxGeometry x="0.8705" y="20" relative="1" as="geometry">
            <mxPoint x="2090.02" y="646" as="targetPoint" />
            <Array as="points">
              <mxPoint x="2040" y="740" />
              <mxPoint x="2040" y="706" />
              <mxPoint x="2090" y="706" />
            </Array>
            <mxPoint as="offset" />
          </mxGeometry>
        </mxCell>
        <mxCell id="W9jZJQIDUN-E1ysLY_Tf-57" value="conecta" style="html=1;whiteSpace=wrap;aspect=fixed;shape=isoRectangle;rounded=0;shadow=0;glass=0;strokeColor=default;align=center;verticalAlign=middle;fontFamily=Helvetica;fontSize=12;fontColor=default;startSize=30;fillColor=default;direction=west;" parent="1" vertex="1">
          <mxGeometry x="2050.02" y="704" width="100" height="72" as="geometry" />
        </mxCell>
        <mxCell id="W9jZJQIDUN-E1ysLY_Tf-58" value="1" style="edgeStyle=orthogonalEdgeStyle;rounded=0;orthogonalLoop=1;jettySize=auto;html=1;endArrow=none;endFill=0;" parent="1" source="W9jZJQIDUN-E1ysLY_Tf-57" target="EP_qLhoWPCY1FDuJNaD8-47" edge="1">
          <mxGeometry x="0.8701" y="-10" relative="1" as="geometry">
            <mxPoint x="2110" y="670" as="targetPoint" />
            <Array as="points">
              <mxPoint x="2160" y="740" />
              <mxPoint x="2160" y="706" />
              <mxPoint x="2110" y="706" />
            </Array>
            <mxPoint as="offset" />
          </mxGeometry>
        </mxCell>
        <mxCell id="W9jZJQIDUN-E1ysLY_Tf-59" value="Fixo" style="swimlane;fontStyle=1;childLayout=stackLayout;horizontal=1;startSize=30;horizontalStack=0;resizeParent=1;resizeParentMax=0;resizeLast=0;collapsible=1;marginBottom=0;whiteSpace=wrap;html=1;rounded=0;shadow=0;glass=0;strokeColor=default;align=center;verticalAlign=middle;fontFamily=Helvetica;fontSize=13;fontColor=default;fillColor=#888daa;labelBackgroundColor=none;labelBorderColor=none;swimlaneFillColor=none;fillStyle=auto;" parent="1" vertex="1">
          <mxGeometry x="1630" y="606" width="100" height="60" as="geometry">
            <mxRectangle x="10" y="120" width="80" height="30" as="alternateBounds" />
          </mxGeometry>
        </mxCell>
        <mxCell id="W9jZJQIDUN-E1ysLY_Tf-60" value="Descrição" style="text;strokeColor=none;fillColor=none;align=left;verticalAlign=middle;spacingLeft=4;spacingRight=4;overflow=hidden;points=[[0,0.5],[1,0.5]];portConstraint=eastwest;rotatable=0;whiteSpace=wrap;html=1;fontSize=12;fontFamily=Helvetica;fontColor=default;labelBackgroundColor=none;labelBorderColor=none;swimlaneFillColor=none;" parent="W9jZJQIDUN-E1ysLY_Tf-59" vertex="1">
          <mxGeometry y="30" width="100" height="30" as="geometry" />
        </mxCell>
        <mxCell id="W9jZJQIDUN-E1ysLY_Tf-214" value="0..1" style="edgeStyle=orthogonalEdgeStyle;rounded=0;orthogonalLoop=1;jettySize=auto;html=1;endArrow=none;endFill=0;" parent="1" source="W9jZJQIDUN-E1ysLY_Tf-61" target="W9jZJQIDUN-E1ysLY_Tf-212" edge="1">
          <mxGeometry x="-0.9164" y="20" relative="1" as="geometry">
            <Array as="points">
              <mxPoint x="1500" y="750" />
              <mxPoint x="1910" y="750" />
            </Array>
            <mxPoint as="offset" />
          </mxGeometry>
        </mxCell>
        <mxCell id="W9jZJQIDUN-E1ysLY_Tf-61" value="Interativo" style="swimlane;fontStyle=1;childLayout=stackLayout;horizontal=1;startSize=30;horizontalStack=0;resizeParent=1;resizeParentMax=0;resizeLast=0;collapsible=1;marginBottom=0;whiteSpace=wrap;html=1;rounded=0;shadow=0;glass=0;strokeColor=default;align=center;verticalAlign=middle;fontFamily=Helvetica;fontSize=13;fontColor=default;fillColor=#888daa;labelBackgroundColor=none;labelBorderColor=none;swimlaneFillColor=none;fillStyle=auto;" parent="1" vertex="1">
          <mxGeometry x="1450" y="606" width="100" height="90" as="geometry">
            <mxRectangle x="10" y="120" width="80" height="30" as="alternateBounds" />
          </mxGeometry>
        </mxCell>
        <mxCell id="W9jZJQIDUN-E1ysLY_Tf-202" value="Descrição" style="text;strokeColor=none;fillColor=none;align=left;verticalAlign=middle;spacingLeft=4;spacingRight=4;overflow=hidden;points=[[0,0.5],[1,0.5]];portConstraint=eastwest;rotatable=0;whiteSpace=wrap;html=1;fontSize=12;fontFamily=Helvetica;fontColor=default;labelBackgroundColor=none;labelBorderColor=none;swimlaneFillColor=none;" parent="W9jZJQIDUN-E1ysLY_Tf-61" vertex="1">
          <mxGeometry y="30" width="100" height="30" as="geometry" />
        </mxCell>
        <mxCell id="W9jZJQIDUN-E1ysLY_Tf-201" value="Item requisito" style="text;strokeColor=none;fillColor=none;align=left;verticalAlign=middle;spacingLeft=4;spacingRight=4;overflow=hidden;points=[[0,0.5],[1,0.5]];portConstraint=eastwest;rotatable=0;whiteSpace=wrap;html=1;fontSize=12;fontFamily=Helvetica;fontColor=default;labelBackgroundColor=none;labelBorderColor=none;swimlaneFillColor=none;" parent="W9jZJQIDUN-E1ysLY_Tf-61" vertex="1">
          <mxGeometry y="60" width="100" height="30" as="geometry" />
        </mxCell>
        <mxCell id="W9jZJQIDUN-E1ysLY_Tf-68" value="1" style="edgeStyle=orthogonalEdgeStyle;rounded=0;orthogonalLoop=1;jettySize=auto;html=1;endArrow=none;endFill=0;" parent="1" source="W9jZJQIDUN-E1ysLY_Tf-65" target="EP_qLhoWPCY1FDuJNaD8-43" edge="1">
          <mxGeometry x="0.8571" y="10" relative="1" as="geometry">
            <Array as="points">
              <mxPoint x="2100" y="140" />
            </Array>
            <mxPoint as="offset" />
          </mxGeometry>
        </mxCell>
        <mxCell id="W9jZJQIDUN-E1ysLY_Tf-69" value="0..1" style="edgeStyle=orthogonalEdgeStyle;rounded=0;orthogonalLoop=1;jettySize=auto;html=1;endArrow=none;endFill=0;jumpStyle=sharp;exitX=0.492;exitY=0.122;exitDx=0;exitDy=0;exitPerimeter=0;" parent="1" source="W9jZJQIDUN-E1ysLY_Tf-65" target="EP_qLhoWPCY1FDuJNaD8-47" edge="1">
          <mxGeometry x="0.9206" y="10" relative="1" as="geometry">
            <Array as="points">
              <mxPoint x="1871" y="480" />
              <mxPoint x="2060" y="480" />
            </Array>
            <mxPoint as="offset" />
          </mxGeometry>
        </mxCell>
        <mxCell id="W9jZJQIDUN-E1ysLY_Tf-153" value="1" style="edgeStyle=orthogonalEdgeStyle;rounded=0;orthogonalLoop=1;jettySize=auto;html=1;shape=link;" parent="1" source="W9jZJQIDUN-E1ysLY_Tf-65" target="EP_qLhoWPCY1FDuJNaD8-27" edge="1">
          <mxGeometry x="0.5778" y="-20" relative="1" as="geometry">
            <mxPoint as="offset" />
          </mxGeometry>
        </mxCell>
        <mxCell id="W9jZJQIDUN-E1ysLY_Tf-65" value="Aponta" style="html=1;whiteSpace=wrap;aspect=fixed;shape=isoRectangle;rounded=0;shadow=0;glass=0;strokeColor=default;align=center;verticalAlign=middle;fontFamily=Helvetica;fontSize=12;fontColor=default;startSize=30;fillColor=default;direction=west;" parent="1" vertex="1">
          <mxGeometry x="1820" y="104" width="100" height="72" as="geometry" />
        </mxCell>
        <mxCell id="W9jZJQIDUN-E1ysLY_Tf-81" value="" style="edgeStyle=orthogonalEdgeStyle;rounded=0;orthogonalLoop=1;jettySize=auto;html=1;endArrow=none;endFill=0;shape=link;" parent="1" source="W9jZJQIDUN-E1ysLY_Tf-76" target="W9jZJQIDUN-E1ysLY_Tf-78" edge="1">
          <mxGeometry relative="1" as="geometry" />
        </mxCell>
        <mxCell id="W9jZJQIDUN-E1ysLY_Tf-113" value="(T,E)" style="edgeLabel;html=1;align=center;verticalAlign=middle;resizable=0;points=[];" parent="W9jZJQIDUN-E1ysLY_Tf-81" vertex="1" connectable="0">
          <mxGeometry x="0.387" y="5" relative="1" as="geometry">
            <mxPoint x="25" y="21" as="offset" />
          </mxGeometry>
        </mxCell>
        <mxCell id="W9jZJQIDUN-E1ysLY_Tf-89" value="1" style="edgeStyle=orthogonalEdgeStyle;rounded=0;orthogonalLoop=1;jettySize=auto;html=1;endArrow=none;endFill=0;jumpStyle=sharp;" parent="1" source="W9jZJQIDUN-E1ysLY_Tf-76" target="EP_qLhoWPCY1FDuJNaD8-25" edge="1">
          <mxGeometry x="-0.9726" y="-14" relative="1" as="geometry">
            <Array as="points">
              <mxPoint x="690" y="36" />
            </Array>
            <mxPoint as="offset" />
          </mxGeometry>
        </mxCell>
        <mxCell id="W9jZJQIDUN-E1ysLY_Tf-76" value="Personagem" style="swimlane;fontStyle=1;childLayout=stackLayout;horizontal=1;startSize=30;horizontalStack=0;resizeParent=1;resizeParentMax=0;resizeLast=0;collapsible=1;marginBottom=0;whiteSpace=wrap;html=1;rounded=0;shadow=0;glass=0;strokeColor=default;align=center;verticalAlign=middle;fontFamily=Helvetica;fontSize=13;fontColor=default;fillColor=#888daa;labelBackgroundColor=none;labelBorderColor=none;swimlaneFillColor=none;fillStyle=auto;" parent="1" vertex="1">
          <mxGeometry x="170" y="20" width="100" height="60" as="geometry">
            <mxRectangle x="10" y="120" width="80" height="30" as="alternateBounds" />
          </mxGeometry>
        </mxCell>
        <mxCell id="W9jZJQIDUN-E1ysLY_Tf-77" value="&lt;u&gt;id&lt;/u&gt;" style="text;strokeColor=none;fillColor=none;align=left;verticalAlign=middle;spacingLeft=4;spacingRight=4;overflow=hidden;points=[[0,0.5],[1,0.5]];portConstraint=eastwest;rotatable=0;whiteSpace=wrap;html=1;fontSize=12;fontFamily=Helvetica;fontColor=default;labelBackgroundColor=none;labelBorderColor=none;swimlaneFillColor=none;" parent="W9jZJQIDUN-E1ysLY_Tf-76" vertex="1">
          <mxGeometry y="30" width="100" height="30" as="geometry" />
        </mxCell>
        <mxCell id="W9jZJQIDUN-E1ysLY_Tf-103" style="rounded=0;orthogonalLoop=1;jettySize=auto;html=1;exitX=0;exitY=0.75;exitDx=0;exitDy=0;endArrow=none;endFill=0;" parent="1" source="W9jZJQIDUN-E1ysLY_Tf-78" target="EP_qLhoWPCY1FDuJNaD8-5" edge="1">
          <mxGeometry relative="1" as="geometry">
            <mxPoint x="375" y="378" as="targetPoint" />
          </mxGeometry>
        </mxCell>
        <mxCell id="W9jZJQIDUN-E1ysLY_Tf-109" value="&#39;pc&#39;" style="edgeLabel;html=1;align=center;verticalAlign=middle;resizable=0;points=[];" parent="W9jZJQIDUN-E1ysLY_Tf-103" vertex="1" connectable="0">
          <mxGeometry x="0.6616" y="-1" relative="1" as="geometry">
            <mxPoint x="15" y="-3" as="offset" />
          </mxGeometry>
        </mxCell>
        <mxCell id="W9jZJQIDUN-E1ysLY_Tf-104" style="rounded=0;orthogonalLoop=1;jettySize=auto;html=1;exitX=0;exitY=0.25;exitDx=0;exitDy=0;endArrow=none;endFill=0;" parent="1" source="W9jZJQIDUN-E1ysLY_Tf-78" target="W9jZJQIDUN-E1ysLY_Tf-101" edge="1">
          <mxGeometry relative="1" as="geometry" />
        </mxCell>
        <mxCell id="W9jZJQIDUN-E1ysLY_Tf-110" value="&#39;npc&#39;" style="edgeLabel;html=1;align=center;verticalAlign=middle;resizable=0;points=[];" parent="W9jZJQIDUN-E1ysLY_Tf-104" vertex="1" connectable="0">
          <mxGeometry x="0.5943" y="2" relative="1" as="geometry">
            <mxPoint x="-27" y="3" as="offset" />
          </mxGeometry>
        </mxCell>
        <mxCell id="W9jZJQIDUN-E1ysLY_Tf-78" value="" style="triangle;whiteSpace=wrap;html=1;direction=north;" parent="1" vertex="1">
          <mxGeometry x="180" y="116" width="80" height="60" as="geometry" />
        </mxCell>
        <mxCell id="W9jZJQIDUN-E1ysLY_Tf-101" value="NPC" style="swimlane;fontStyle=1;childLayout=stackLayout;horizontal=1;startSize=30;horizontalStack=0;resizeParent=1;resizeParentMax=0;resizeLast=0;collapsible=1;marginBottom=0;whiteSpace=wrap;html=1;rounded=0;shadow=0;glass=0;strokeColor=default;align=center;verticalAlign=middle;fontFamily=Helvetica;fontSize=13;fontColor=default;fillColor=#888daa;labelBackgroundColor=none;labelBorderColor=none;swimlaneFillColor=none;fillStyle=auto;" parent="1" vertex="1">
          <mxGeometry x="70" y="244" width="100" height="120" as="geometry">
            <mxRectangle x="10" y="120" width="80" height="30" as="alternateBounds" />
          </mxGeometry>
        </mxCell>
        <mxCell id="W9jZJQIDUN-E1ysLY_Tf-231" value="Nome" style="text;strokeColor=none;fillColor=none;align=left;verticalAlign=middle;spacingLeft=4;spacingRight=4;overflow=hidden;points=[[0,0.5],[1,0.5]];portConstraint=eastwest;rotatable=0;whiteSpace=wrap;html=1;fontSize=12;fontFamily=Helvetica;fontColor=default;labelBackgroundColor=none;labelBorderColor=none;swimlaneFillColor=none;" parent="W9jZJQIDUN-E1ysLY_Tf-101" vertex="1">
          <mxGeometry y="30" width="100" height="30" as="geometry" />
        </mxCell>
        <mxCell id="W9jZJQIDUN-E1ysLY_Tf-290" value="descrição" style="text;strokeColor=none;fillColor=none;align=left;verticalAlign=middle;spacingLeft=4;spacingRight=4;overflow=hidden;points=[[0,0.5],[1,0.5]];portConstraint=eastwest;rotatable=0;whiteSpace=wrap;html=1;fontSize=12;fontFamily=Helvetica;fontColor=default;labelBackgroundColor=none;labelBorderColor=none;swimlaneFillColor=none;" parent="W9jZJQIDUN-E1ysLY_Tf-101" vertex="1">
          <mxGeometry y="60" width="100" height="30" as="geometry" />
        </mxCell>
        <mxCell id="W9jZJQIDUN-E1ysLY_Tf-294" value="isWordMachine" style="text;strokeColor=none;fillColor=none;align=left;verticalAlign=middle;spacingLeft=4;spacingRight=4;overflow=hidden;points=[[0,0.5],[1,0.5]];portConstraint=eastwest;rotatable=0;whiteSpace=wrap;html=1;fontSize=12;fontFamily=Helvetica;fontColor=default;labelBackgroundColor=none;labelBorderColor=none;swimlaneFillColor=none;" parent="W9jZJQIDUN-E1ysLY_Tf-101" vertex="1">
          <mxGeometry y="90" width="100" height="30" as="geometry" />
        </mxCell>
        <mxCell id="W9jZJQIDUN-E1ysLY_Tf-234" value="1" style="edgeStyle=orthogonalEdgeStyle;rounded=0;orthogonalLoop=1;jettySize=auto;html=1;endArrow=none;endFill=0;" parent="1" source="W9jZJQIDUN-E1ysLY_Tf-105" target="W9jZJQIDUN-E1ysLY_Tf-101" edge="1">
          <mxGeometry x="0.5614" y="10" relative="1" as="geometry">
            <Array as="points">
              <mxPoint x="120" y="390" />
            </Array>
            <mxPoint as="offset" />
          </mxGeometry>
        </mxCell>
        <mxCell id="W9jZJQIDUN-E1ysLY_Tf-105" value="Conversa" style="html=1;whiteSpace=wrap;aspect=fixed;shape=isoRectangle;rounded=0;shadow=0;glass=0;strokeColor=default;align=center;verticalAlign=middle;fontFamily=Helvetica;fontSize=12;fontColor=default;startSize=30;fillColor=default;direction=west;" parent="1" vertex="1">
          <mxGeometry x="150" y="354" width="100" height="72" as="geometry" />
        </mxCell>
        <mxCell id="W9jZJQIDUN-E1ysLY_Tf-124" value="1" style="edgeStyle=orthogonalEdgeStyle;rounded=0;orthogonalLoop=1;jettySize=auto;html=1;endArrow=none;endFill=0;" parent="1" source="W9jZJQIDUN-E1ysLY_Tf-119" target="EP_qLhoWPCY1FDuJNaD8-5" edge="1">
          <mxGeometry x="0.8491" y="10" relative="1" as="geometry">
            <Array as="points">
              <mxPoint x="280" y="486" />
            </Array>
            <mxPoint as="offset" />
          </mxGeometry>
        </mxCell>
        <mxCell id="W9jZJQIDUN-E1ysLY_Tf-119" value="Conversa" style="html=1;whiteSpace=wrap;aspect=fixed;shape=isoRectangle;rounded=0;shadow=0;glass=0;strokeColor=default;align=center;verticalAlign=middle;fontFamily=Helvetica;fontSize=12;fontColor=default;startSize=30;fillColor=default;direction=west;" parent="1" vertex="1">
          <mxGeometry x="150" y="450" width="100" height="72" as="geometry" />
        </mxCell>
        <mxCell id="W9jZJQIDUN-E1ysLY_Tf-123" value="1" style="edgeStyle=orthogonalEdgeStyle;rounded=0;orthogonalLoop=1;jettySize=auto;html=1;endArrow=none;endFill=0;" parent="1" source="W9jZJQIDUN-E1ysLY_Tf-120" target="EP_qLhoWPCY1FDuJNaD8-5" edge="1">
          <mxGeometry x="0.894" y="-10" relative="1" as="geometry">
            <Array as="points">
              <mxPoint x="290" y="566" />
            </Array>
            <mxPoint as="offset" />
          </mxGeometry>
        </mxCell>
        <mxCell id="W9jZJQIDUN-E1ysLY_Tf-120" value="Controla" style="html=1;whiteSpace=wrap;aspect=fixed;shape=isoRectangle;rounded=0;shadow=0;glass=0;strokeColor=default;align=center;verticalAlign=middle;fontFamily=Helvetica;fontSize=12;fontColor=default;startSize=30;fillColor=default;direction=west;" parent="1" vertex="1">
          <mxGeometry x="150" y="536" width="100" height="72" as="geometry" />
        </mxCell>
        <mxCell id="W9jZJQIDUN-E1ysLY_Tf-122" value="1" style="edgeStyle=orthogonalEdgeStyle;rounded=0;orthogonalLoop=1;jettySize=auto;html=1;exitX=1;exitY=0.5;exitDx=0;exitDy=0;endArrow=none;endFill=0;" parent="1" source="EP_qLhoWPCY1FDuJNaD8-2" target="W9jZJQIDUN-E1ysLY_Tf-120" edge="1">
          <mxGeometry x="0.3725" y="-10" relative="1" as="geometry">
            <mxPoint as="offset" />
          </mxGeometry>
        </mxCell>
        <mxCell id="W9jZJQIDUN-E1ysLY_Tf-135" style="edgeStyle=orthogonalEdgeStyle;rounded=0;orthogonalLoop=1;jettySize=auto;html=1;endArrow=none;endFill=0;" parent="1" source="W9jZJQIDUN-E1ysLY_Tf-127" target="W9jZJQIDUN-E1ysLY_Tf-59" edge="1">
          <mxGeometry relative="1" as="geometry" />
        </mxCell>
        <mxCell id="W9jZJQIDUN-E1ysLY_Tf-137" value="&#39;fixo&#39;" style="edgeLabel;html=1;align=center;verticalAlign=middle;resizable=0;points=[];" parent="W9jZJQIDUN-E1ysLY_Tf-135" vertex="1" connectable="0">
          <mxGeometry x="0.6802" relative="1" as="geometry">
            <mxPoint x="20" as="offset" />
          </mxGeometry>
        </mxCell>
        <mxCell id="W9jZJQIDUN-E1ysLY_Tf-136" style="edgeStyle=orthogonalEdgeStyle;rounded=0;orthogonalLoop=1;jettySize=auto;html=1;endArrow=none;endFill=0;" parent="1" source="W9jZJQIDUN-E1ysLY_Tf-127" target="W9jZJQIDUN-E1ysLY_Tf-61" edge="1">
          <mxGeometry relative="1" as="geometry" />
        </mxCell>
        <mxCell id="W9jZJQIDUN-E1ysLY_Tf-138" value="&#39;interativo&#39;" style="edgeLabel;html=1;align=center;verticalAlign=middle;resizable=0;points=[];" parent="W9jZJQIDUN-E1ysLY_Tf-136" vertex="1" connectable="0">
          <mxGeometry x="0.6698" y="-1" relative="1" as="geometry">
            <mxPoint x="-29" as="offset" />
          </mxGeometry>
        </mxCell>
        <mxCell id="W9jZJQIDUN-E1ysLY_Tf-149" value="(T,E)" style="edgeStyle=orthogonalEdgeStyle;rounded=0;orthogonalLoop=1;jettySize=auto;html=1;shape=link;" parent="1" source="W9jZJQIDUN-E1ysLY_Tf-127" target="EP_qLhoWPCY1FDuJNaD8-88" edge="1">
          <mxGeometry x="-1" y="-47" relative="1" as="geometry">
            <mxPoint x="-7" y="24" as="offset" />
          </mxGeometry>
        </mxCell>
        <mxCell id="W9jZJQIDUN-E1ysLY_Tf-127" value="" style="triangle;whiteSpace=wrap;html=1;direction=north;fillColor=default;" parent="1" vertex="1">
          <mxGeometry x="1550" y="476" width="80" height="60" as="geometry" />
        </mxCell>
        <mxCell id="W9jZJQIDUN-E1ysLY_Tf-158" style="rounded=0;orthogonalLoop=1;jettySize=auto;html=1;exitX=0;exitY=0.25;exitDx=0;exitDy=0;endArrow=none;endFill=0;" parent="1" source="W9jZJQIDUN-E1ysLY_Tf-139" target="EP_qLhoWPCY1FDuJNaD8-90" edge="1">
          <mxGeometry relative="1" as="geometry" />
        </mxCell>
        <mxCell id="W9jZJQIDUN-E1ysLY_Tf-255" value="&#39;equipamento&#39;" style="edgeLabel;html=1;align=center;verticalAlign=middle;resizable=0;points=[];" parent="W9jZJQIDUN-E1ysLY_Tf-158" vertex="1" connectable="0">
          <mxGeometry x="0.4607" y="2" relative="1" as="geometry">
            <mxPoint x="-44" y="2" as="offset" />
          </mxGeometry>
        </mxCell>
        <mxCell id="W9jZJQIDUN-E1ysLY_Tf-160" style="rounded=0;orthogonalLoop=1;jettySize=auto;html=1;exitX=0;exitY=0.75;exitDx=0;exitDy=0;endArrow=none;endFill=0;" parent="1" source="W9jZJQIDUN-E1ysLY_Tf-139" target="W9jZJQIDUN-E1ysLY_Tf-17" edge="1">
          <mxGeometry relative="1" as="geometry" />
        </mxCell>
        <mxCell id="W9jZJQIDUN-E1ysLY_Tf-254" value="&#39;item&#39;" style="edgeLabel;html=1;align=center;verticalAlign=middle;resizable=0;points=[];" parent="W9jZJQIDUN-E1ysLY_Tf-160" vertex="1" connectable="0">
          <mxGeometry x="0.0181" y="3" relative="1" as="geometry">
            <mxPoint x="33" y="20" as="offset" />
          </mxGeometry>
        </mxCell>
        <mxCell id="W9jZJQIDUN-E1ysLY_Tf-299" style="edgeStyle=orthogonalEdgeStyle;rounded=0;orthogonalLoop=1;jettySize=auto;html=1;shape=link;" parent="1" source="W9jZJQIDUN-E1ysLY_Tf-139" target="EP_qLhoWPCY1FDuJNaD8-86" edge="1">
          <mxGeometry relative="1" as="geometry" />
        </mxCell>
        <mxCell id="W9jZJQIDUN-E1ysLY_Tf-139" value="" style="triangle;whiteSpace=wrap;html=1;direction=north;" parent="1" vertex="1">
          <mxGeometry x="755" y="450" width="80" height="60" as="geometry" />
        </mxCell>
        <mxCell id="W9jZJQIDUN-E1ysLY_Tf-151" value="1" style="edgeStyle=orthogonalEdgeStyle;rounded=0;orthogonalLoop=1;jettySize=auto;html=1;endArrow=none;endFill=0;exitX=1.008;exitY=0.503;exitDx=0;exitDy=0;exitPerimeter=0;" parent="1" source="W9jZJQIDUN-E1ysLY_Tf-150" edge="1">
          <mxGeometry x="0.975" y="10" relative="1" as="geometry">
            <mxPoint x="1110" y="120" as="sourcePoint" />
            <mxPoint x="1820" y="40" as="targetPoint" />
            <Array as="points">
              <mxPoint x="1120" y="108" />
              <mxPoint x="1120" y="40" />
            </Array>
            <mxPoint as="offset" />
          </mxGeometry>
        </mxCell>
        <mxCell id="W9jZJQIDUN-E1ysLY_Tf-275" style="edgeStyle=orthogonalEdgeStyle;rounded=0;orthogonalLoop=1;jettySize=auto;html=1;endArrow=none;endFill=0;jumpStyle=sharp;exitX=0.492;exitY=0.913;exitDx=0;exitDy=0;exitPerimeter=0;" parent="1" source="W9jZJQIDUN-E1ysLY_Tf-150" target="W9jZJQIDUN-E1ysLY_Tf-272" edge="1">
          <mxGeometry relative="1" as="geometry">
            <Array as="points">
              <mxPoint x="1049" y="189" />
            </Array>
          </mxGeometry>
        </mxCell>
        <mxCell id="W9jZJQIDUN-E1ysLY_Tf-276" value="0..N" style="edgeLabel;html=1;align=center;verticalAlign=middle;resizable=0;points=[];" parent="W9jZJQIDUN-E1ysLY_Tf-275" vertex="1" connectable="0">
          <mxGeometry x="0.8105" y="-2" relative="1" as="geometry">
            <mxPoint x="-17" y="-11" as="offset" />
          </mxGeometry>
        </mxCell>
        <mxCell id="W9jZJQIDUN-E1ysLY_Tf-150" value="Viagem&lt;br&gt;Rapida" style="html=1;whiteSpace=wrap;aspect=fixed;shape=isoRectangle;rounded=0;shadow=0;glass=0;strokeColor=default;align=center;verticalAlign=middle;fontFamily=Helvetica;fontSize=12;fontColor=default;startSize=30;fillColor=default;" parent="1" vertex="1">
          <mxGeometry x="1000" y="72" width="100" height="72" as="geometry" />
        </mxCell>
        <mxCell id="W9jZJQIDUN-E1ysLY_Tf-179" value="Tem" style="html=1;whiteSpace=wrap;aspect=fixed;shape=isoRectangle;rounded=0;shadow=0;glass=0;strokeColor=default;align=center;verticalAlign=middle;fontFamily=Helvetica;fontSize=12;fontColor=default;startSize=30;fillColor=default;direction=south;" parent="1" vertex="1">
          <mxGeometry x="1554" y="162" width="72" height="100" as="geometry" />
        </mxCell>
        <mxCell id="W9jZJQIDUN-E1ysLY_Tf-181" value="1" style="edgeStyle=orthogonalEdgeStyle;rounded=0;orthogonalLoop=1;jettySize=auto;html=1;endArrow=none;endFill=0;" parent="1" source="W9jZJQIDUN-E1ysLY_Tf-179" edge="1">
          <mxGeometry x="0.9359" y="10" relative="1" as="geometry">
            <mxPoint x="1820" y="80" as="targetPoint" />
            <Array as="points">
              <mxPoint x="1590" y="80" />
            </Array>
            <mxPoint as="offset" />
          </mxGeometry>
        </mxCell>
        <mxCell id="W9jZJQIDUN-E1ysLY_Tf-191" style="edgeStyle=orthogonalEdgeStyle;rounded=0;orthogonalLoop=1;jettySize=auto;html=1;endArrow=none;endFill=0;" parent="1" source="W9jZJQIDUN-E1ysLY_Tf-182" target="W9jZJQIDUN-E1ysLY_Tf-190" edge="1">
          <mxGeometry relative="1" as="geometry" />
        </mxCell>
        <mxCell id="W9jZJQIDUN-E1ysLY_Tf-182" value="Inventario" style="swimlane;fontStyle=1;childLayout=stackLayout;horizontal=1;startSize=30;horizontalStack=0;resizeParent=1;resizeParentMax=0;resizeLast=0;collapsible=1;marginBottom=0;whiteSpace=wrap;html=1;rounded=0;shadow=0;glass=0;strokeColor=default;align=center;verticalAlign=middle;fontFamily=Helvetica;fontSize=13;fontColor=default;fillColor=#888daa;labelBackgroundColor=none;labelBorderColor=none;swimlaneFillColor=none;fillStyle=auto;" parent="1" vertex="1">
          <mxGeometry x="485" y="380" width="100" height="90" as="geometry">
            <mxRectangle x="10" y="120" width="80" height="30" as="alternateBounds" />
          </mxGeometry>
        </mxCell>
        <mxCell id="W9jZJQIDUN-E1ysLY_Tf-259" value="id dono" style="text;strokeColor=none;fillColor=none;align=left;verticalAlign=middle;spacingLeft=4;spacingRight=4;overflow=hidden;points=[[0,0.5],[1,0.5]];portConstraint=eastwest;rotatable=0;whiteSpace=wrap;html=1;fontSize=12;fontFamily=Helvetica;fontColor=default;labelBackgroundColor=none;labelBorderColor=none;swimlaneFillColor=none;" parent="W9jZJQIDUN-E1ysLY_Tf-182" vertex="1">
          <mxGeometry y="30" width="100" height="30" as="geometry" />
        </mxCell>
        <mxCell id="W9jZJQIDUN-E1ysLY_Tf-258" value="N max de item" style="text;strokeColor=none;fillColor=none;align=left;verticalAlign=middle;spacingLeft=4;spacingRight=4;overflow=hidden;points=[[0,0.5],[1,0.5]];portConstraint=eastwest;rotatable=0;whiteSpace=wrap;html=1;fontSize=12;fontFamily=Helvetica;fontColor=default;labelBackgroundColor=none;labelBorderColor=none;swimlaneFillColor=none;" parent="W9jZJQIDUN-E1ysLY_Tf-182" vertex="1">
          <mxGeometry y="60" width="100" height="30" as="geometry" />
        </mxCell>
        <mxCell id="W9jZJQIDUN-E1ysLY_Tf-188" style="edgeStyle=orthogonalEdgeStyle;rounded=0;orthogonalLoop=1;jettySize=auto;html=1;endArrow=none;endFill=0;" parent="1" source="W9jZJQIDUN-E1ysLY_Tf-187" target="EP_qLhoWPCY1FDuJNaD8-5" edge="1">
          <mxGeometry relative="1" as="geometry">
            <mxPoint x="369.9000000000001" y="329.4999999999998" as="targetPoint" />
            <Array as="points">
              <mxPoint x="386" y="360" />
              <mxPoint x="330" y="360" />
            </Array>
          </mxGeometry>
        </mxCell>
        <mxCell id="W9jZJQIDUN-E1ysLY_Tf-189" style="edgeStyle=orthogonalEdgeStyle;rounded=0;orthogonalLoop=1;jettySize=auto;html=1;endArrow=none;endFill=0;exitX=0.503;exitY=0.921;exitDx=0;exitDy=0;exitPerimeter=0;shape=link;" parent="1" source="W9jZJQIDUN-E1ysLY_Tf-187" target="W9jZJQIDUN-E1ysLY_Tf-182" edge="1">
          <mxGeometry relative="1" as="geometry" />
        </mxCell>
        <mxCell id="W9jZJQIDUN-E1ysLY_Tf-187" value="Tem" style="html=1;whiteSpace=wrap;aspect=fixed;shape=isoRectangle;rounded=0;shadow=0;glass=0;strokeColor=default;align=center;verticalAlign=middle;fontFamily=Helvetica;fontSize=12;fontColor=default;startSize=30;fillColor=default;direction=north;" parent="1" vertex="1">
          <mxGeometry x="350" y="375" width="72" height="100" as="geometry" />
        </mxCell>
        <mxCell id="W9jZJQIDUN-E1ysLY_Tf-192" style="edgeStyle=orthogonalEdgeStyle;rounded=0;orthogonalLoop=1;jettySize=auto;html=1;endArrow=none;endFill=0;" parent="1" source="W9jZJQIDUN-E1ysLY_Tf-190" target="EP_qLhoWPCY1FDuJNaD8-86" edge="1">
          <mxGeometry relative="1" as="geometry">
            <Array as="points">
              <mxPoint x="730" y="335" />
              <mxPoint x="730" y="335" />
            </Array>
          </mxGeometry>
        </mxCell>
        <mxCell id="W9jZJQIDUN-E1ysLY_Tf-190" value="Guarda" style="html=1;whiteSpace=wrap;aspect=fixed;shape=isoRectangle;rounded=0;shadow=0;glass=0;strokeColor=default;align=center;verticalAlign=middle;fontFamily=Helvetica;fontSize=12;fontColor=default;startSize=30;fillColor=default;direction=east;" parent="1" vertex="1">
          <mxGeometry x="596" y="299" width="100" height="72" as="geometry" />
        </mxCell>
        <mxCell id="W9jZJQIDUN-E1ysLY_Tf-193" value="Tem" style="html=1;whiteSpace=wrap;aspect=fixed;shape=isoRectangle;rounded=0;shadow=0;glass=0;strokeColor=default;align=center;verticalAlign=middle;fontFamily=Helvetica;fontSize=12;fontColor=default;startSize=30;fillColor=default;direction=north;" parent="1" vertex="1">
          <mxGeometry x="352.16" y="378" width="67.68" height="94" as="geometry" />
        </mxCell>
        <mxCell id="W9jZJQIDUN-E1ysLY_Tf-196" value="1" style="edgeStyle=orthogonalEdgeStyle;rounded=0;orthogonalLoop=1;jettySize=auto;html=1;endArrow=none;endFill=0;" parent="1" source="W9jZJQIDUN-E1ysLY_Tf-194" target="EP_qLhoWPCY1FDuJNaD8-27" edge="1">
          <mxGeometry x="0.9603" y="10" relative="1" as="geometry">
            <Array as="points">
              <mxPoint x="1360" y="74" />
              <mxPoint x="1360" y="60" />
            </Array>
            <mxPoint as="offset" />
          </mxGeometry>
        </mxCell>
        <mxCell id="W9jZJQIDUN-E1ysLY_Tf-194" value="Pode ter" style="html=1;whiteSpace=wrap;aspect=fixed;shape=isoRectangle;rounded=0;shadow=0;glass=0;strokeColor=default;align=center;verticalAlign=middle;fontFamily=Helvetica;fontSize=12;fontColor=default;startSize=30;fillColor=default;direction=west;" parent="1" vertex="1">
          <mxGeometry x="1230" y="38" width="100" height="72" as="geometry" />
        </mxCell>
        <mxCell id="W9jZJQIDUN-E1ysLY_Tf-205" value="1" style="edgeStyle=orthogonalEdgeStyle;rounded=0;orthogonalLoop=1;jettySize=auto;html=1;endArrow=none;endFill=0;" parent="1" source="W9jZJQIDUN-E1ysLY_Tf-199" target="W9jZJQIDUN-E1ysLY_Tf-61" edge="1">
          <mxGeometry x="0.9626" y="16" relative="1" as="geometry">
            <Array as="points">
              <mxPoint x="1210" y="666" />
            </Array>
            <mxPoint as="offset" />
          </mxGeometry>
        </mxCell>
        <mxCell id="W9jZJQIDUN-E1ysLY_Tf-240" value="Com" style="edgeLabel;html=1;align=center;verticalAlign=middle;resizable=0;points=[];" parent="W9jZJQIDUN-E1ysLY_Tf-205" vertex="1" connectable="0">
          <mxGeometry x="0.7614" y="-1" relative="1" as="geometry">
            <mxPoint x="44" y="14" as="offset" />
          </mxGeometry>
        </mxCell>
        <mxCell id="W9jZJQIDUN-E1ysLY_Tf-227" value="0..1" style="edgeStyle=orthogonalEdgeStyle;rounded=0;orthogonalLoop=1;jettySize=auto;html=1;endArrow=none;endFill=0;" parent="1" source="W9jZJQIDUN-E1ysLY_Tf-199" target="W9jZJQIDUN-E1ysLY_Tf-225" edge="1">
          <mxGeometry x="0.3333" y="-15" relative="1" as="geometry">
            <Array as="points">
              <mxPoint x="1300" y="335" />
              <mxPoint x="1300" y="335" />
            </Array>
            <mxPoint as="offset" />
          </mxGeometry>
        </mxCell>
        <mxCell id="W9jZJQIDUN-E1ysLY_Tf-238" value="gera" style="edgeLabel;html=1;align=center;verticalAlign=middle;resizable=0;points=[];" parent="W9jZJQIDUN-E1ysLY_Tf-227" vertex="1" connectable="0">
          <mxGeometry x="-0.019" relative="1" as="geometry">
            <mxPoint x="16" y="-14" as="offset" />
          </mxGeometry>
        </mxCell>
        <mxCell id="W9jZJQIDUN-E1ysLY_Tf-199" value="Interação" style="html=1;whiteSpace=wrap;aspect=fixed;shape=isoRectangle;rounded=0;shadow=0;glass=0;strokeColor=default;align=center;verticalAlign=middle;fontFamily=Helvetica;fontSize=12;fontColor=default;startSize=30;fillColor=default;direction=west;" parent="1" vertex="1">
          <mxGeometry x="1160" y="299" width="100" height="72" as="geometry" />
        </mxCell>
        <mxCell id="W9jZJQIDUN-E1ysLY_Tf-207" value="0..1" style="edgeStyle=orthogonalEdgeStyle;rounded=0;orthogonalLoop=1;jettySize=auto;html=1;endArrow=none;endFill=0;" parent="1" source="W9jZJQIDUN-E1ysLY_Tf-206" target="EP_qLhoWPCY1FDuJNaD8-47" edge="1">
          <mxGeometry x="0.9" y="30" relative="1" as="geometry">
            <Array as="points">
              <mxPoint x="1956" y="420" />
              <mxPoint x="2100" y="420" />
            </Array>
            <mxPoint as="offset" />
          </mxGeometry>
        </mxCell>
        <mxCell id="W9jZJQIDUN-E1ysLY_Tf-208" value="1" style="edgeStyle=orthogonalEdgeStyle;rounded=0;orthogonalLoop=1;jettySize=auto;html=1;endArrow=none;endFill=0;entryX=-0.004;entryY=0.666;entryDx=0;entryDy=0;entryPerimeter=0;" parent="1" source="W9jZJQIDUN-E1ysLY_Tf-206" target="EP_qLhoWPCY1FDuJNaD8-44" edge="1">
          <mxGeometry x="0.7207" y="10" relative="1" as="geometry">
            <mxPoint x="2040" y="240" as="targetPoint" />
            <Array as="points">
              <mxPoint x="1956" y="230" />
            </Array>
            <mxPoint as="offset" />
          </mxGeometry>
        </mxCell>
        <mxCell id="W9jZJQIDUN-E1ysLY_Tf-206" value="Saida" style="html=1;whiteSpace=wrap;aspect=fixed;shape=isoRectangle;rounded=0;shadow=0;glass=0;strokeColor=default;align=center;verticalAlign=middle;fontFamily=Helvetica;fontSize=12;fontColor=default;startSize=30;fillColor=default;direction=south;" parent="1" vertex="1">
          <mxGeometry x="1920" y="280" width="72" height="100" as="geometry" />
        </mxCell>
        <mxCell id="W9jZJQIDUN-E1ysLY_Tf-212" value="Trava" style="html=1;whiteSpace=wrap;aspect=fixed;shape=isoRectangle;rounded=0;shadow=0;glass=0;strokeColor=default;align=center;verticalAlign=middle;fontFamily=Helvetica;fontSize=12;fontColor=default;startSize=30;fillColor=default;direction=west;" parent="1" vertex="1">
          <mxGeometry x="1860" y="568" width="100" height="72" as="geometry" />
        </mxCell>
        <mxCell id="W9jZJQIDUN-E1ysLY_Tf-218" value="0..1" style="edgeStyle=orthogonalEdgeStyle;rounded=0;orthogonalLoop=1;jettySize=auto;html=1;endArrow=none;endFill=0;" parent="1" source="W9jZJQIDUN-E1ysLY_Tf-217" target="EP_qLhoWPCY1FDuJNaD8-90" edge="1">
          <mxGeometry x="0.9813" y="20" relative="1" as="geometry">
            <Array as="points">
              <mxPoint x="1776" y="780" />
              <mxPoint x="660" y="780" />
            </Array>
            <mxPoint as="offset" />
          </mxGeometry>
        </mxCell>
        <mxCell id="W9jZJQIDUN-E1ysLY_Tf-219" value="1" style="edgeStyle=orthogonalEdgeStyle;rounded=0;orthogonalLoop=1;jettySize=auto;html=1;endArrow=none;endFill=0;jumpStyle=sharp;" parent="1" source="W9jZJQIDUN-E1ysLY_Tf-217" target="EP_qLhoWPCY1FDuJNaD8-43" edge="1">
          <mxGeometry x="0.8873" y="20" relative="1" as="geometry">
            <Array as="points">
              <mxPoint x="1776" y="190" />
            </Array>
            <mxPoint as="offset" />
          </mxGeometry>
        </mxCell>
        <mxCell id="W9jZJQIDUN-E1ysLY_Tf-217" value="É pre&lt;br&gt;requisito" style="html=1;whiteSpace=wrap;aspect=fixed;shape=isoRectangle;rounded=0;shadow=0;glass=0;strokeColor=default;align=center;verticalAlign=middle;fontFamily=Helvetica;fontSize=12;fontColor=default;startSize=30;fillColor=default;direction=south;" parent="1" vertex="1">
          <mxGeometry x="1740" y="271" width="72" height="100" as="geometry" />
        </mxCell>
        <mxCell id="W9jZJQIDUN-E1ysLY_Tf-269" value="1" style="edgeStyle=orthogonalEdgeStyle;rounded=0;orthogonalLoop=1;jettySize=auto;html=1;endArrow=none;endFill=0;" parent="1" source="W9jZJQIDUN-E1ysLY_Tf-225" target="W9jZJQIDUN-E1ysLY_Tf-268" edge="1">
          <mxGeometry x="-0.8596" y="20" relative="1" as="geometry">
            <Array as="points">
              <mxPoint x="1380" y="470" />
              <mxPoint x="1294" y="470" />
            </Array>
            <mxPoint as="offset" />
          </mxGeometry>
        </mxCell>
        <mxCell id="W9jZJQIDUN-E1ysLY_Tf-284" value="1" style="edgeStyle=orthogonalEdgeStyle;rounded=0;orthogonalLoop=1;jettySize=auto;html=1;endArrow=none;endFill=0;" parent="1" source="W9jZJQIDUN-E1ysLY_Tf-225" target="W9jZJQIDUN-E1ysLY_Tf-285" edge="1">
          <mxGeometry x="-0.8718" y="10" relative="1" as="geometry">
            <mxPoint x="1470" y="400" as="targetPoint" />
            <Array as="points">
              <mxPoint x="1466" y="290" />
            </Array>
            <mxPoint as="offset" />
          </mxGeometry>
        </mxCell>
        <mxCell id="W9jZJQIDUN-E1ysLY_Tf-225" value="Evento" style="swimlane;fontStyle=1;childLayout=stackLayout;horizontal=1;startSize=30;horizontalStack=0;resizeParent=1;resizeParentMax=0;resizeLast=0;collapsible=1;marginBottom=0;whiteSpace=wrap;html=1;rounded=0;shadow=0;glass=0;strokeColor=default;align=center;verticalAlign=middle;fontFamily=Helvetica;fontSize=13;fontColor=default;fillColor=#888daa;labelBackgroundColor=none;labelBorderColor=none;swimlaneFillColor=none;fillStyle=auto;" parent="1" vertex="1">
          <mxGeometry x="1330" y="274" width="100" height="90" as="geometry">
            <mxRectangle x="10" y="120" width="80" height="30" as="alternateBounds" />
          </mxGeometry>
        </mxCell>
        <mxCell id="W9jZJQIDUN-E1ysLY_Tf-229" value="&lt;u&gt;idevento&lt;/u&gt;" style="text;strokeColor=none;fillColor=none;align=left;verticalAlign=middle;spacingLeft=4;spacingRight=4;overflow=hidden;points=[[0,0.5],[1,0.5]];portConstraint=eastwest;rotatable=0;whiteSpace=wrap;html=1;fontSize=12;fontFamily=Helvetica;fontColor=default;labelBackgroundColor=none;labelBorderColor=none;swimlaneFillColor=none;" parent="W9jZJQIDUN-E1ysLY_Tf-225" vertex="1">
          <mxGeometry y="30" width="100" height="30" as="geometry" />
        </mxCell>
        <mxCell id="W9jZJQIDUN-E1ysLY_Tf-230" value="Descrição" style="text;strokeColor=none;fillColor=none;align=left;verticalAlign=middle;spacingLeft=4;spacingRight=4;overflow=hidden;points=[[0,0.5],[1,0.5]];portConstraint=eastwest;rotatable=0;whiteSpace=wrap;html=1;fontSize=12;fontFamily=Helvetica;fontColor=default;labelBackgroundColor=none;labelBorderColor=none;swimlaneFillColor=none;" parent="W9jZJQIDUN-E1ysLY_Tf-225" vertex="1">
          <mxGeometry y="60" width="100" height="30" as="geometry" />
        </mxCell>
        <mxCell id="W9jZJQIDUN-E1ysLY_Tf-264" value="1" style="edgeStyle=orthogonalEdgeStyle;rounded=0;orthogonalLoop=1;jettySize=auto;html=1;exitX=0.5;exitY=0;exitDx=0;exitDy=0;jumpStyle=sharp;endArrow=none;endFill=0;" parent="1" source="W9jZJQIDUN-E1ysLY_Tf-260" target="W9jZJQIDUN-E1ysLY_Tf-119" edge="1">
          <mxGeometry x="-0.9546" y="10" relative="1" as="geometry">
            <Array as="points">
              <mxPoint x="380" y="530" />
              <mxPoint x="200" y="530" />
            </Array>
            <mxPoint as="offset" />
          </mxGeometry>
        </mxCell>
        <mxCell id="W9jZJQIDUN-E1ysLY_Tf-260" value="Dialogo" style="swimlane;fontStyle=1;childLayout=stackLayout;horizontal=1;startSize=30;horizontalStack=0;resizeParent=1;resizeParentMax=0;resizeLast=0;collapsible=1;marginBottom=0;whiteSpace=wrap;html=1;rounded=0;shadow=0;glass=0;strokeColor=default;align=center;verticalAlign=middle;fontFamily=Helvetica;fontSize=13;fontColor=default;fillColor=#888daa;labelBackgroundColor=none;labelBorderColor=none;swimlaneFillColor=none;fillStyle=auto;" parent="1" vertex="1">
          <mxGeometry x="330" y="606" width="100" height="210" as="geometry">
            <mxRectangle x="10" y="120" width="80" height="30" as="alternateBounds" />
          </mxGeometry>
        </mxCell>
        <mxCell id="W9jZJQIDUN-E1ysLY_Tf-261" value="id Dialogo" style="text;strokeColor=none;fillColor=none;align=left;verticalAlign=middle;spacingLeft=4;spacingRight=4;overflow=hidden;points=[[0,0.5],[1,0.5]];portConstraint=eastwest;rotatable=0;whiteSpace=wrap;html=1;fontSize=12;fontFamily=Helvetica;fontColor=default;labelBackgroundColor=none;labelBorderColor=none;swimlaneFillColor=none;" parent="W9jZJQIDUN-E1ysLY_Tf-260" vertex="1">
          <mxGeometry y="30" width="100" height="30" as="geometry" />
        </mxCell>
        <mxCell id="W9jZJQIDUN-E1ysLY_Tf-266" value="texto" style="text;strokeColor=none;fillColor=none;align=left;verticalAlign=middle;spacingLeft=4;spacingRight=4;overflow=hidden;points=[[0,0.5],[1,0.5]];portConstraint=eastwest;rotatable=0;whiteSpace=wrap;html=1;fontSize=12;fontFamily=Helvetica;fontColor=default;labelBackgroundColor=none;labelBorderColor=none;swimlaneFillColor=none;" parent="W9jZJQIDUN-E1ysLY_Tf-260" vertex="1">
          <mxGeometry y="60" width="100" height="30" as="geometry" />
        </mxCell>
        <mxCell id="W9jZJQIDUN-E1ysLY_Tf-289" value="opções" style="text;strokeColor=none;fillColor=none;align=left;verticalAlign=middle;spacingLeft=4;spacingRight=4;overflow=hidden;points=[[0,0.5],[1,0.5]];portConstraint=eastwest;rotatable=0;whiteSpace=wrap;html=1;fontSize=12;fontFamily=Helvetica;fontColor=default;labelBackgroundColor=none;labelBorderColor=none;swimlaneFillColor=none;" parent="W9jZJQIDUN-E1ysLY_Tf-260" vertex="1">
          <mxGeometry y="90" width="100" height="30" as="geometry" />
        </mxCell>
        <mxCell id="W9jZJQIDUN-E1ysLY_Tf-262" value="id npc" style="text;strokeColor=none;fillColor=none;align=left;verticalAlign=middle;spacingLeft=4;spacingRight=4;overflow=hidden;points=[[0,0.5],[1,0.5]];portConstraint=eastwest;rotatable=0;whiteSpace=wrap;html=1;fontSize=12;fontFamily=Helvetica;fontColor=default;labelBackgroundColor=none;labelBorderColor=none;swimlaneFillColor=none;" parent="W9jZJQIDUN-E1ysLY_Tf-260" vertex="1">
          <mxGeometry y="120" width="100" height="30" as="geometry" />
        </mxCell>
        <mxCell id="W9jZJQIDUN-E1ysLY_Tf-267" value="id PC" style="text;strokeColor=none;fillColor=none;align=left;verticalAlign=middle;spacingLeft=4;spacingRight=4;overflow=hidden;points=[[0,0.5],[1,0.5]];portConstraint=eastwest;rotatable=0;whiteSpace=wrap;html=1;fontSize=12;fontFamily=Helvetica;fontColor=default;labelBackgroundColor=none;labelBorderColor=none;swimlaneFillColor=none;" parent="W9jZJQIDUN-E1ysLY_Tf-260" vertex="1">
          <mxGeometry y="150" width="100" height="30" as="geometry" />
        </mxCell>
        <mxCell id="W9jZJQIDUN-E1ysLY_Tf-271" value="id Deus" style="text;strokeColor=none;fillColor=none;align=left;verticalAlign=middle;spacingLeft=4;spacingRight=4;overflow=hidden;points=[[0,0.5],[1,0.5]];portConstraint=eastwest;rotatable=0;whiteSpace=wrap;html=1;fontSize=12;fontFamily=Helvetica;fontColor=default;labelBackgroundColor=none;labelBorderColor=none;swimlaneFillColor=none;" parent="W9jZJQIDUN-E1ysLY_Tf-260" vertex="1">
          <mxGeometry y="180" width="100" height="30" as="geometry" />
        </mxCell>
        <mxCell id="W9jZJQIDUN-E1ysLY_Tf-263" value="1" style="edgeStyle=orthogonalEdgeStyle;rounded=0;orthogonalLoop=1;jettySize=auto;html=1;jumpStyle=sharp;endArrow=none;endFill=0;" parent="1" source="W9jZJQIDUN-E1ysLY_Tf-105" target="W9jZJQIDUN-E1ysLY_Tf-260" edge="1">
          <mxGeometry x="0.8254" y="10" relative="1" as="geometry">
            <Array as="points">
              <mxPoint x="200" y="440" />
              <mxPoint x="310" y="440" />
              <mxPoint x="310" y="651" />
            </Array>
            <mxPoint as="offset" />
          </mxGeometry>
        </mxCell>
        <mxCell id="W9jZJQIDUN-E1ysLY_Tf-270" value="0..1" style="edgeStyle=orthogonalEdgeStyle;rounded=0;orthogonalLoop=1;jettySize=auto;html=1;jumpStyle=sharp;endArrow=none;endFill=0;" parent="1" source="W9jZJQIDUN-E1ysLY_Tf-268" target="W9jZJQIDUN-E1ysLY_Tf-260" edge="1">
          <mxGeometry x="0.966" y="-11" relative="1" as="geometry">
            <Array as="points">
              <mxPoint x="1294" y="800" />
              <mxPoint x="580" y="800" />
              <mxPoint x="580" y="681" />
            </Array>
            <mxPoint as="offset" />
          </mxGeometry>
        </mxCell>
        <mxCell id="W9jZJQIDUN-E1ysLY_Tf-268" value="Gera" style="html=1;whiteSpace=wrap;aspect=fixed;shape=isoRectangle;rounded=0;shadow=0;glass=0;strokeColor=default;align=center;verticalAlign=middle;fontFamily=Helvetica;fontSize=12;fontColor=default;startSize=30;fillColor=default;direction=north;" parent="1" vertex="1">
          <mxGeometry x="1258" y="506" width="72" height="100" as="geometry" />
        </mxCell>
        <mxCell id="W9jZJQIDUN-E1ysLY_Tf-272" value="Regioes Visitadas" style="swimlane;fontStyle=1;childLayout=stackLayout;horizontal=1;startSize=30;horizontalStack=0;resizeParent=1;resizeParentMax=0;resizeLast=0;collapsible=1;marginBottom=0;whiteSpace=wrap;html=1;rounded=0;shadow=0;glass=0;strokeColor=default;align=center;verticalAlign=middle;fontFamily=Helvetica;fontSize=13;fontColor=default;fillColor=#888daa;labelBackgroundColor=none;labelBorderColor=none;swimlaneFillColor=none;fillStyle=auto;" parent="1" vertex="1">
          <mxGeometry x="600" y="144" width="100" height="90" as="geometry">
            <mxRectangle x="10" y="120" width="80" height="30" as="alternateBounds" />
          </mxGeometry>
        </mxCell>
        <mxCell id="W9jZJQIDUN-E1ysLY_Tf-273" value="id regiao" style="text;strokeColor=none;fillColor=none;align=left;verticalAlign=middle;spacingLeft=4;spacingRight=4;overflow=hidden;points=[[0,0.5],[1,0.5]];portConstraint=eastwest;rotatable=0;whiteSpace=wrap;html=1;fontSize=12;fontFamily=Helvetica;fontColor=default;labelBackgroundColor=none;labelBorderColor=none;swimlaneFillColor=none;" parent="W9jZJQIDUN-E1ysLY_Tf-272" vertex="1">
          <mxGeometry y="30" width="100" height="30" as="geometry" />
        </mxCell>
        <mxCell id="W9jZJQIDUN-E1ysLY_Tf-274" value="nome da regiao" style="text;strokeColor=none;fillColor=none;align=left;verticalAlign=middle;spacingLeft=4;spacingRight=4;overflow=hidden;points=[[0,0.5],[1,0.5]];portConstraint=eastwest;rotatable=0;whiteSpace=wrap;html=1;fontSize=12;fontFamily=Helvetica;fontColor=default;labelBackgroundColor=none;labelBorderColor=none;swimlaneFillColor=none;" parent="W9jZJQIDUN-E1ysLY_Tf-272" vertex="1">
          <mxGeometry y="60" width="100" height="30" as="geometry" />
        </mxCell>
        <mxCell id="W9jZJQIDUN-E1ysLY_Tf-281" style="edgeStyle=orthogonalEdgeStyle;rounded=0;orthogonalLoop=1;jettySize=auto;html=1;endArrow=none;endFill=0;" parent="1" source="W9jZJQIDUN-E1ysLY_Tf-280" target="W9jZJQIDUN-E1ysLY_Tf-272" edge="1">
          <mxGeometry relative="1" as="geometry" />
        </mxCell>
        <mxCell id="W9jZJQIDUN-E1ysLY_Tf-280" value="Possui" style="html=1;whiteSpace=wrap;aspect=fixed;shape=isoRectangle;rounded=0;shadow=0;glass=0;strokeColor=default;align=center;verticalAlign=middle;fontFamily=Helvetica;fontSize=12;fontColor=default;startSize=30;fillColor=default;direction=east;" parent="1" vertex="1">
          <mxGeometry x="419.84" y="153" width="100" height="72" as="geometry" />
        </mxCell>
        <mxCell id="W9jZJQIDUN-E1ysLY_Tf-286" style="edgeStyle=orthogonalEdgeStyle;rounded=0;orthogonalLoop=1;jettySize=auto;html=1;endArrow=none;endFill=0;" parent="1" source="W9jZJQIDUN-E1ysLY_Tf-285" target="W9jZJQIDUN-E1ysLY_Tf-61" edge="1">
          <mxGeometry relative="1" as="geometry">
            <Array as="points">
              <mxPoint x="1466" y="558" />
              <mxPoint x="1420" y="558" />
              <mxPoint x="1420" y="620" />
            </Array>
          </mxGeometry>
        </mxCell>
        <mxCell id="W9jZJQIDUN-E1ysLY_Tf-285" value="Altera" style="html=1;whiteSpace=wrap;aspect=fixed;shape=isoRectangle;rounded=0;shadow=0;glass=0;strokeColor=default;align=center;verticalAlign=middle;fontFamily=Helvetica;fontSize=12;fontColor=default;startSize=30;fillColor=default;direction=north;" parent="1" vertex="1">
          <mxGeometry x="1430" y="410" width="72" height="100" as="geometry" />
        </mxCell>
        <mxCell id="W9jZJQIDUN-E1ysLY_Tf-310" value="0..1" style="edgeStyle=orthogonalEdgeStyle;rounded=0;orthogonalLoop=1;jettySize=auto;html=1;endArrow=none;endFill=0;" parent="1" source="W9jZJQIDUN-E1ysLY_Tf-308" target="W9jZJQIDUN-E1ysLY_Tf-225" edge="1">
          <mxGeometry x="0.44" y="20" relative="1" as="geometry">
            <mxPoint as="offset" />
          </mxGeometry>
        </mxCell>
        <mxCell id="W9jZJQIDUN-E1ysLY_Tf-312" value="pode gerar" style="edgeLabel;html=1;align=center;verticalAlign=middle;resizable=0;points=[];" parent="W9jZJQIDUN-E1ysLY_Tf-310" vertex="1" connectable="0">
          <mxGeometry x="-0.6194" y="-1" relative="1" as="geometry">
            <mxPoint x="-39" y="6" as="offset" />
          </mxGeometry>
        </mxCell>
        <mxCell id="W9jZJQIDUN-E1ysLY_Tf-311" value="1" style="edgeStyle=orthogonalEdgeStyle;rounded=0;orthogonalLoop=1;jettySize=auto;html=1;jumpStyle=sharp;endArrow=none;endFill=0;" parent="1" source="W9jZJQIDUN-E1ysLY_Tf-308" target="EP_qLhoWPCY1FDuJNaD8-47" edge="1">
          <mxGeometry x="0.9639" y="10" relative="1" as="geometry">
            <Array as="points">
              <mxPoint x="1380" y="150" />
              <mxPoint x="1730" y="150" />
              <mxPoint x="1730" y="570" />
            </Array>
            <mxPoint as="offset" />
          </mxGeometry>
        </mxCell>
        <mxCell id="W9jZJQIDUN-E1ysLY_Tf-308" value="Primeira&lt;br&gt;visita" style="html=1;whiteSpace=wrap;aspect=fixed;shape=isoRectangle;rounded=0;shadow=0;glass=0;strokeColor=default;align=center;verticalAlign=middle;fontFamily=Helvetica;fontSize=12;fontColor=default;startSize=30;fillColor=default;direction=west;" parent="1" vertex="1">
          <mxGeometry x="1330" y="172" width="100" height="72" as="geometry" />
        </mxCell>
        <mxCell id="W9jZJQIDUN-E1ysLY_Tf-317" value="1" style="edgeStyle=orthogonalEdgeStyle;rounded=0;orthogonalLoop=1;jettySize=auto;html=1;jumpStyle=sharp;endArrow=none;endFill=0;" parent="1" source="W9jZJQIDUN-E1ysLY_Tf-316" target="W9jZJQIDUN-E1ysLY_Tf-225" edge="1">
          <mxGeometry x="0.8865" y="10" relative="1" as="geometry">
            <Array as="points">
              <mxPoint x="1360" y="426" />
            </Array>
            <mxPoint as="offset" />
          </mxGeometry>
        </mxCell>
        <mxCell id="W9jZJQIDUN-E1ysLY_Tf-318" value="0..1" style="edgeStyle=orthogonalEdgeStyle;rounded=0;orthogonalLoop=1;jettySize=auto;html=1;jumpStyle=sharp;endArrow=none;endFill=0;" parent="1" source="W9jZJQIDUN-E1ysLY_Tf-316" target="EP_qLhoWPCY1FDuJNaD8-86" edge="1">
          <mxGeometry x="0.8893" y="-10" relative="1" as="geometry">
            <Array as="points">
              <mxPoint x="910" y="426" />
              <mxPoint x="910" y="350" />
            </Array>
            <mxPoint as="offset" />
          </mxGeometry>
        </mxCell>
        <mxCell id="W9jZJQIDUN-E1ysLY_Tf-316" value="Gera" style="html=1;whiteSpace=wrap;aspect=fixed;shape=isoRectangle;rounded=0;shadow=0;glass=0;strokeColor=default;align=center;verticalAlign=middle;fontFamily=Helvetica;fontSize=12;fontColor=default;startSize=30;fillColor=default;direction=east;" parent="1" vertex="1">
          <mxGeometry x="1040" y="390" width="100" height="72" as="geometry" />
        </mxCell>
        <mxCell id="HM1OqKwvqyBgG8QLrfGv-1" value="" style="rounded=0;whiteSpace=wrap;html=1;fillColor=none;" vertex="1" parent="1">
          <mxGeometry x="487" y="382" width="96" height="26" as="geometry" />
        </mxCell>
      </root>
    </mxGraphModel>
  </diagram>
</mxfile>
